<?xml version="1.0" standalone="no"?>
<!DOCTYPE svg PUBLIC "-//W3C//DTD SVG 20010904//EN" "http://www.w3.org/TR/2001/REC-SVG-20010904/DTD/svg10.dtd">
<!-- Created using Krita: https://krita.org -->
<svg xmlns="http://www.w3.org/2000/svg" 
    xmlns:xlink="http://www.w3.org/1999/xlink"
    xmlns:krita="http://krita.org/namespaces/svg/krita"
    xmlns:sodipodi="http://sodipodi.sourceforge.net/DTD/sodipodi-0.dtd"
    width="864pt"
    height="864pt"
    viewBox="0 0 864 864">
<defs/>
<path id="shape0" transform="matrix(6.64615384615385 0 0 6.64615384615385 6.64615384615385 6.64617378461538)" fill="#030303" stroke-opacity="0" stroke="#000000" stroke-width="0" stroke-linecap="square" stroke-linejoin="bevel" d="M0 52C0 34.3333 0 17.1667 0 6e-06C43.3333 3e-06 86.6666 3e-06 130 0C130 43.3333 130 86.6666 130 130C86.6667 130 43.3334 130 5.3e-05 130C0 104.167 0 78.3333 0 52M113.491 5.00248C77.7703 5.00248 42.0493 5.00248 6.37516 5.00248C6.37516 45.3445 6.37516 84.9313 6.37516 124.636C46.4135 124.636 86.2464 124.636 125.998 124.636C125.998 84.6714 125.998 45.0691 125.998 5.00248C122.062 5.00248 118.274 5.00248 113.491 5.00248Z" sodipodi:nodetypes="cccccccccccc"/><path id="shape1" transform="matrix(6.64615384615385 0 0 6.64615384615385 162.728401557386 140.159963599506)" fill="#0d0d0d" stroke-opacity="0" stroke="#000000" stroke-width="0" stroke-linecap="square" stroke-linejoin="bevel" d="M11.3711 71.0478C-0.983485 56.3043 -3.4692 40.1962 4.8891 23.3939C12.9745 7.14027 27.0145 -0.959809 45.1606 0.0906286C63.5072 1.15267 76.1422 11.0389 82.7575 28.2308C89.4716 45.6795 82.7715 66.3705 67.0824 77.297C51.0529 88.4605 29.7204 87.2989 14.8442 74.4335C13.7125 73.4548 12.6809 72.3603 11.3711 71.0478M54.5366 7.07836C48.304 6.69703 41.8693 5.13818 35.8787 6.16656C20.9818 8.72383 11.0359 18.0299 7.04155 32.5308C2.92847 47.4626 7.00432 60.7133 18.9189 70.7048C30.6066 80.506 44.0423 82.5728 58.0411 76.1008C72.3372 69.4913 79.8678 57.9049 79.7023 42.1134C79.5248 25.1801 70.6947 13.8375 54.5366 7.07836Z" sodipodi:nodetypes="cccccccccccccc"/><path id="shape2" transform="matrix(6.64615384615385 0 0 6.64615384615385 305.790947446154 438.317322092308)" fill="#0a0a0a" stroke-opacity="0" stroke="#000000" stroke-width="0" stroke-linecap="square" stroke-linejoin="bevel" d="M26.2914 20.941C10.7234 22.3087 1.32014 14.9417 0 0.275216C1.55405 0.181839 3.09804 0.089074 4.58058 0C8.28569 11.9297 13.6224 16.627 22.5348 15.994C30.5567 15.4243 35.9396 9.73676 37.2383 0.264702C38.7984 0.264702 40.3922 0.264702 41.9828 0.264702C42.5539 9.73009 37.5198 16.4896 26.2914 20.941Z" sodipodi:nodetypes="ccccccc"/><path id="shape3" transform="matrix(6.64615384615385 0 0 6.64615384615385 289.488802707692 298.725015246832)" fill="#141414" stroke-opacity="0" stroke="#000000" stroke-width="0" stroke-linecap="square" stroke-linejoin="bevel" d="M19.0542 10.6863C17.5023 9.91185 15.9621 9.38332 15.1955 8.30489C12.4425 4.43223 8.65354 4.31535 5.78281 7.90816C4.5755 9.41915 2.57708 10.298 0 12.132C0.502925 4.49228 3.65558 0.805245 8.80711 0.106217C13.8532 -0.578502 18.6934 2.09223 20.288 6.81838C20.6484 7.88648 19.7434 9.38153 19.0542 10.6863Z" sodipodi:nodetypes="ccccccc"/><path id="shape4" transform="matrix(6.64615384615385 0 0 6.64615384615385 469.239244061538 298.042190997565)" fill="#121212" stroke-opacity="0" stroke="#000000" stroke-width="0" stroke-linecap="square" stroke-linejoin="bevel" d="M0 6.96106C3.4631 1.10861 7.66656 -1.07692 12.7714 0.493053C17.446 1.93069 20.2403 5.08726 20.3805 11.5636C18.0828 10.4619 15.9293 10.095 14.9083 8.82071C11.1642 4.14779 8.70873 4.15605 4.89007 8.89724C4.00773 9.99273 1.9527 10.1437 0.437309 10.7293C0.243705 9.59208 0.050109 8.45484 0 6.96106Z" sodipodi:nodetypes="ccccccc"/>
</svg>
