<?xml version="1.0" standalone="no"?>
<!DOCTYPE svg PUBLIC "-//W3C//DTD SVG 20010904//EN" "http://www.w3.org/TR/2001/REC-SVG-20010904/DTD/svg10.dtd">
<!-- Created using Krita: https://krita.org -->
<svg xmlns="http://www.w3.org/2000/svg" 
    xmlns:xlink="http://www.w3.org/1999/xlink"
    xmlns:krita="http://krita.org/namespaces/svg/krita"
    xmlns:sodipodi="http://sodipodi.sourceforge.net/DTD/sodipodi-0.dtd"
    width="864pt"
    height="864pt"
    viewBox="0 0 864 864">
<defs/>
<path id="shape0" transform="translate(120.205309036336, 112.63221827729)" fill="#ffea00" fill-rule="evenodd" stroke="#ffb1a5" stroke-width="116.8488" stroke-linecap="square" stroke-linejoin="bevel" d="M23.7947 415.848C-14.7541 415.848 3.35105 275.579 10.8347 253.128C35.0525 180.474 76.0015 100.304 144.755 65.9278C156.827 59.8917 166.612 44.2422 179.315 40.0078C215.288 28.0167 250.439 23.8856 281.555 8.32778C305.356 -3.5731 362.254 -1.01732 388.115 5.44778C412.4 11.5191 440.584 10.8025 461.555 21.2878C594.426 87.7236 632.881 206.912 667.475 345.288C675.804 378.605 667.303 422.122 657.395 451.848C645.004 489.019 561.621 585.052 529.235 595.848C515.16 600.539 494.125 632.991 471.635 640.488C445.324 649.258 372.564 687.433 344.915 673.608C308.807 655.554 256.024 670.922 221.075 653.448C191.456 638.639 162.848 611.374 134.675 597.288C122.861 591.381 47.2756 485.85 41.0747 473.448C36.9512 465.201 23.7947 451.848 23.7947 451.848C23.7947 451.848 28.6696 451.518 29.5547 453.288C40.5999 475.378 51.3361 492.712 59.7947 518.088C62.0481 524.848 62.2889 540.742 66.9947 545.448C69.168 547.621 74.1947 554.281 74.1947 551.208C74.1947 549.225 67.1588 542.896 65.5547 539.688C58.6012 525.781 54.0314 509.431 51.1547 495.048C45.7648 468.098 22.9459 448.453 16.5947 423.048C13.9447 412.448 10.8511 395.622 13.7147 384.168C25.1096 338.588 111.006 157.682 150.515 137.928C188.864 118.753 230.033 96.1041 272.915 87.5278C396.285 62.8537 547.102 103.974 595.475 232.968C609.785 271.128 595.955 318.409 591.155 356.808C585.154 404.816 587.084 476.736 555.155 516.648C525.945 553.159 491.225 566.144 452.915 590.088C350.228 654.267 294.768 637.819 199.475 558.408C169.216 533.192 137.669 504.915 121.715 467.688C109.891 440.098 110.642 406.19 115.955 376.968C131.714 290.289 169.47 261.55 248.435 228.648C337.121 191.695 387.05 191.145 441.395 286.248C517.139 418.8 371.097 695.339 203.795 509.448C167.633 469.268 156.275 422.423 156.275 369.768C156.275 329.812 158.865 288.152 180.755 253.128C245.785 149.079 385.782 145.675 467.315 227.208C491.236 251.129 520.17 280.739 527.795 315.048C551.556 421.973 461.567 525.285 363.635 549.768C340.199 555.627 310.212 563.928 287.315 551.208C222.302 515.09 176.002 404.417 208.115 333.768C232.545 280.021 316.127 255.392 370.835 263.208C477.428 278.435 328.156 542.249 255.635 500.808C241.431 492.691 227.838 476.225 218.195 463.368C151.603 374.579 368.093 320.947 380.915 333.768C417.023 369.876 238.984 472.576 210.995 425.928C182.79 378.919 368.767 331.7 379.475 342.408C381.798 344.732 375.795 354.344 375.155 355.368C356.507 385.204 264.716 458.235 228.275 446.088C225.791 445.26 251.097 414.776 252.755 412.968C287.437 375.132 337.715 343.913 337.715 343.848" sodipodi:nodetypes="ccccccccccccccccccccccccccccccccccccccccccccccccccccc"/><path id="shape1" transform="matrix(15.7090909090909 0 0 15.7090909090909 290.618181818182 274.909090909091)" fill="none" stroke="#000000" stroke-width="2" stroke-linecap="round" stroke-linejoin="round" d="M0 0C0.671198 8.833 1.3424 17.666 2.03267 26.75C7.15591 26.75 12.328 26.75 18.0511 26.75C18.6864 18.0304 19.3432 9.01521 20 0" sodipodi:nodetypes="cccc"/><path id="shape2" transform="matrix(15.7090909090909 0 0 15.7090909090909 369.163636363636 322.036363636364)" fill="none" stroke="#000000" stroke-width="2" stroke-linecap="round" stroke-linejoin="round" d="M0 0C0.333332 6.66667 0.666666 13.3333 1 20" sodipodi:nodetypes="cc"/><path id="shape3" transform="matrix(15.7090909090909 0 0 15.7090909090909 447.709090909091 322.036363636364)" fill="none" stroke="#000000" stroke-width="2" stroke-linecap="round" stroke-linejoin="round" d="M0 0C0 6.66667 0 13.3333 0 20" sodipodi:nodetypes="cc"/><path id="shape4" transform="matrix(15.7090909090909 0 0 15.7090909090909 510.545391709091 322.036363636364)" fill="none" stroke="#000000" stroke-width="2" stroke-linecap="round" stroke-linejoin="round" d="M1 0C0.666668 6.66667 0.333336 13.3333 0 20" sodipodi:nodetypes="cc"/><path id="shape5" transform="matrix(15.7090909090909 0 0 15.7090909090909 259.2 259.2)" fill="none" stroke="#000000" stroke-width="2" stroke-linecap="round" stroke-linejoin="round" d="M0 0C8 0 16 0 24 0" sodipodi:nodetypes="cc"/><path id="shape6" transform="matrix(15.7090909090909 0 0 15.7090909090909 55.5143892484921 54.5246595097426)" fill="none" stroke="#000000" stroke-width="3" stroke-linecap="round" stroke-linejoin="round" d="M22.4661 0.0291015C10.6199 2.30133 2.81067 8.60138 0.391163 21.0145C-1.53515 30.8973 3.47018 45.7141 19.4898 49.4267C33.3032 52.6279 45.6456 43.7088 49.0737 31.5595C53.1328 17.1736 42.7073 -0.822173 22.9661 0.0291015" sodipodi:nodetypes="ccccc"/>
</svg>
