<?xml version="1.0" standalone="no"?>
<!DOCTYPE svg PUBLIC "-//W3C//DTD SVG 20010904//EN" "http://www.w3.org/TR/2001/REC-SVG-20010904/DTD/svg10.dtd">
<!-- Created using Krita: https://krita.org -->
<svg xmlns="http://www.w3.org/2000/svg" 
    xmlns:xlink="http://www.w3.org/1999/xlink"
    xmlns:krita="http://krita.org/namespaces/svg/krita"
    xmlns:sodipodi="http://sodipodi.sourceforge.net/DTD/sodipodi-0.dtd"
    width="864pt"
    height="864pt"
    viewBox="0 0 864 864">
<defs/>
<path id="shape0" transform="matrix(15.7090909090909 0 0 15.7090909090909 30.4031500527175 30.7923955082167)" fill="#141414" stroke-opacity="0" stroke="#000000" stroke-width="0" stroke-linecap="square" stroke-linejoin="bevel" d="M51.2976 17.0175C56.2507 33.3542 48.4373 48.252 33.1762 52.1921C18.4553 55.9929 4.0752 47.0781 0.625741 32.0129C-2.17761 19.7695 4.67164 6.81626 16.5004 1.99087C28.5838 -2.93837 42.3188 1.5344 49.1415 12.6573C49.9184 13.9238 50.4966 15.3121 51.2976 17.0175M35.4465 48.2027C48.8117 41.8123 53.8416 27.7054 47.1585 15.3545C40.6945 3.40841 25.5572 -0.541013 14.0337 6.71202C4.2035 12.8992 0.410135 25.3742 5.11508 36.0422C10.083 47.3065 21.6606 52.1907 35.4465 48.2027Z" sodipodi:nodetypes="ccccccccccc"/><path id="shape1" transform="matrix(15.7090909090909 0 0 15.7090909090909 79.1930549136378 79.0654272171264)" fill="#f1ccd0" stroke-opacity="0" stroke="#000000" stroke-width="0" stroke-linecap="square" stroke-linejoin="bevel" d="M31.9825 45.2965C18.5548 49.1178 6.97721 44.2335 2.00924 32.9692C-2.6957 22.3013 1.09766 9.82631 10.9279 3.63908C22.4514 -3.61395 37.5886 0.335478 44.0527 12.2816C50.7357 24.6325 45.7059 38.7394 31.9825 45.2965M29.6131 23.4529C32.9928 19.8269 36.3725 16.2009 39.513 12.8315C38.3569 11.1272 37.2855 9.5477 35.1012 6.32748C31.1702 11.4586 28.176 15.3669 24.2419 20.5021C20.2741 15.6329 17.2408 11.9106 14.0717 8.02149C12.0947 9.62108 10.7288 10.7263 8.59295 12.4544C13.1698 16.1936 17.0131 19.3334 22.0164 23.421C17.0053 27.5168 13.1602 30.6595 9.12739 33.9557C10.9145 36.0068 12.0665 37.3289 13.7952 39.313C17.3502 35.0489 20.5116 31.2569 24.6141 26.3362C28.6001 31.3344 31.6988 35.2199 35.0661 39.4422C37.2547 37.2382 38.5684 35.9153 40.8323 33.6354C36.953 30.2405 33.4539 27.1783 29.6131 23.4529Z" sodipodi:nodetypes="cccccccccccccccccc"/><path id="shape2" transform="matrix(15.7090909090909 0 0 15.7090909090909 214.180510254545 178.464336872727)" fill="#0b0b0b" stroke-opacity="0" stroke="#000000" stroke-width="0" stroke-linecap="square" stroke-linejoin="bevel" d="M21.191 17.457C24.8609 20.8508 28.3601 23.9131 32.2393 27.308C29.9754 29.5878 28.6618 30.9107 26.4732 33.1147C23.1059 28.8924 20.0072 25.0069 16.0211 20.0087C11.9187 24.9294 8.75727 28.7214 5.20227 32.9855C3.47357 31.0015 2.32158 29.6793 0.534438 27.6282C4.56724 24.3321 8.41232 21.1893 13.4235 17.0935C8.42015 13.0059 4.57687 9.86611 0 6.12696C2.13581 4.39883 3.50177 3.2936 5.47871 1.69402C8.64786 5.58309 11.6812 9.30547 15.649 14.1746C19.5831 9.03946 22.5773 5.1311 26.5083 0C28.6926 3.22023 29.764 4.79975 30.92 6.50407C27.7795 9.87346 24.3998 13.4995 21.191 17.457Z" sodipodi:nodetypes="ccccccccccccc"/>
</svg>
