<?xml version="1.0" standalone="no"?>
<!DOCTYPE svg PUBLIC "-//W3C//DTD SVG 20010904//EN" "http://www.w3.org/TR/2001/REC-SVG-20010904/DTD/svg10.dtd">
<!-- Created using Krita: https://krita.org -->
<svg xmlns="http://www.w3.org/2000/svg" 
    xmlns:xlink="http://www.w3.org/1999/xlink"
    xmlns:krita="http://krita.org/namespaces/svg/krita"
    xmlns:sodipodi="http://sodipodi.sourceforge.net/DTD/sodipodi-0.dtd"
    width="864pt"
    height="864pt"
    viewBox="0 0 864 864">
<defs/>
<path id="shape0" transform="matrix(15.7090909090909 0 0 15.7090909090909 54.770547702807 33.0722596657008)" fill="#1a1a1a" stroke-opacity="0" stroke="#000000" stroke-width="0" stroke-linecap="square" stroke-linejoin="bevel" d="M52.5134 31.4406C51.8749 33.381 51.2158 34.8589 50.601 36.355C45.5951 48.5366 32.4547 55.0989 19.5524 51.8522C7.30329 48.7699 -1.15606 36.6607 0.128831 24.0481C1.49096 10.6773 11.8772 0.721091 25.1808 0.0334027C37.9609 -0.627227 49.4565 8.5788 52.2154 21.6698C52.5134 24.9253 52.5134 27.9559 52.5134 31.4406M17.0552 48.1672C29.6094 52.5603 41.6757 48.2136 47.3119 37.2677C52.5809 27.0348 49.5594 14.0266 40.3622 7.34751C29.2154 -0.747241 13.5892 2.16025 6.27523 13.6899C-1.41281 25.8093 2.93429 40.5804 17.0552 48.1672Z" sodipodi:nodetypes="cccccccccccc"/><path id="shape1" transform="matrix(15.7090909090909 0 0 15.7090909090909 95.0456985175593 76.3449913739502)" fill="#c9f1dc" stroke-opacity="0" stroke="#000000" stroke-width="0" stroke-linecap="square" stroke-linejoin="bevel" d="M14.1929 45.2634C0.432625 37.8258 -3.91447 23.0546 3.77357 10.9353C11.0875 -0.594375 26.7137 -3.50187 37.8605 4.59288C47.0578 11.2719 50.0793 24.2801 44.8102 34.5131C39.174 45.459 27.1078 49.8057 14.1929 45.2634M17.0989 28.3782C14.7398 26.6342 12.4206 24.8322 10.0029 23.1736C8.97662 22.4696 7.7439 22.0664 5.62648 21.0626C9.79897 25.5222 13.0131 28.9575 16.1911 32.3542C24.4849 26.3146 35.4215 14.3319 35.3576 10.2854C29.1105 16.5063 23.4036 22.1893 17.0989 28.3782Z" sodipodi:nodetypes="ccccccccccc"/><path id="shape2" transform="matrix(15.7090909090909 0 0 15.7090909090909 182.456331054545 237.919302981818)" fill="#303030" stroke-opacity="0" stroke="#000000" stroke-width="0" stroke-linecap="square" stroke-linejoin="bevel" d="M11.7713 17.8398C17.7771 11.9039 23.484 6.22088 29.7311 0C29.795 4.04646 18.8584 16.0292 10.5646 22.0688C7.38662 18.6721 4.17249 15.2368 0 10.7772C2.11742 11.781 3.35013 12.1842 4.37645 12.8882C6.79413 14.5468 9.11337 16.3488 11.7713 17.8398Z" sodipodi:nodetypes="cccccc"/>
</svg>
