<?xml version="1.0" standalone="no"?>
<!DOCTYPE svg PUBLIC "-//W3C//DTD SVG 20010904//EN" "http://www.w3.org/TR/2001/REC-SVG-20010904/DTD/svg10.dtd">
<!-- Created using Krita: https://krita.org -->
<svg xmlns="http://www.w3.org/2000/svg" 
    xmlns:xlink="http://www.w3.org/1999/xlink"
    xmlns:krita="http://krita.org/namespaces/svg/krita"
    xmlns:sodipodi="http://sodipodi.sourceforge.net/DTD/sodipodi-0.dtd"
    width="864pt"
    height="864pt"
    viewBox="0 0 864 864">
<defs/>
<path id="shape0" transform="matrix(6.64615384615385 0 0 6.64615384615385 6.64615384615385 6.64617378461538)" fill="#030303" stroke-opacity="0" stroke="#000000" stroke-width="0" stroke-linecap="square" stroke-linejoin="bevel" d="M0 52C0 34.3333 0 17.1667 0 6e-06C43.3333 3e-06 86.6666 3e-06 130 0C130 43.3333 130 86.6666 130 130C86.6667 130 43.3334 130 5.3e-05 130C0 104.167 0 78.3333 0 52M113.491 5.00248C77.7703 5.00248 42.0493 5.00248 6.37516 5.00248C6.37516 45.3445 6.37516 84.9313 6.37516 124.636C46.4135 124.636 86.2464 124.636 125.998 124.636C125.998 84.6714 125.998 45.0691 125.998 5.00248C122.062 5.00248 118.274 5.00248 113.491 5.00248Z" sodipodi:nodetypes="cccccccccccc"/><path id="shape1" transform="matrix(6.64615384615384 0 0 6.64615384615384 49.0164745846154 39.893432123077)" fill="#c6e3f2" stroke-opacity="0" stroke="#000000" stroke-width="0" stroke-linecap="square" stroke-linejoin="bevel" d="M107.614 0C111.899 0 115.687 0 119.623 0C119.623 40.0666 119.623 79.6689 119.623 119.633C79.8712 119.633 40.0383 119.633 0 119.633C0 79.9288 0 40.342 0 0C35.6741 0 71.3951 0 107.614 0M28.7123 86.406C29.7904 87.4467 30.8219 88.5412 31.9536 89.5199C46.8298 102.385 68.1624 103.547 84.1918 92.3834C99.8809 81.4569 106.581 60.7659 99.8669 43.3172C93.2516 26.1253 80.6166 16.2391 62.2701 15.177C44.1239 14.1266 30.0839 22.2267 21.9985 38.4803C13.6402 55.2826 16.1259 71.3907 28.7123 86.406Z" sodipodi:nodetypes="ccccccccccccc"/><path id="shape2" transform="matrix(6.64615384615385 0 0 6.64615384615385 162.728401557386 140.159963599506)" fill="#0d0d0d" stroke-opacity="0" stroke="#000000" stroke-width="0" stroke-linecap="square" stroke-linejoin="bevel" d="M11.3711 71.0478C-0.983485 56.3043 -3.4692 40.1962 4.8891 23.3939C12.9745 7.14027 27.0145 -0.959809 45.1606 0.0906286C63.5072 1.15267 76.1422 11.0389 82.7575 28.2308C89.4716 45.6795 82.7715 66.3705 67.0824 77.297C51.0529 88.4605 29.7204 87.2989 14.8442 74.4335C13.7125 73.4548 12.6809 72.3603 11.3711 71.0478M54.5366 7.07836C48.304 6.69703 41.8693 5.13818 35.8787 6.16656C20.9818 8.72383 11.0359 18.0299 7.04155 32.5308C2.92847 47.4626 7.00432 60.7133 18.9189 70.7048C30.6066 80.506 44.0423 82.5728 58.0411 76.1008C72.3372 69.4913 79.8678 57.9049 79.7023 42.1134C79.5248 25.1801 70.6947 13.8375 54.5366 7.07836Z" sodipodi:nodetypes="cccccccccccccc"/><path id="shape3" transform="matrix(6.64615384615384 0 0 6.64615384615384 199.192800295803 178.861316506866)" fill="#c6e3f2" stroke-opacity="0" stroke="#000000" stroke-width="0" stroke-linecap="square" stroke-linejoin="bevel" d="M49.4221 1.39827C65.2082 8.01437 74.0383 19.357 74.2157 36.2903C74.3812 52.0818 66.8507 63.6682 52.5546 70.2777C38.5558 76.7497 25.12 74.6829 13.4323 64.8817C1.51778 54.8902 -2.55807 41.6395 1.55501 26.7077C5.5494 12.2068 15.4953 2.90071 30.3921 0.343436C36.3827 -0.684944 42.8175 0.873913 49.4221 1.39827M42.7518 59.8989C53.5589 55.5282 58.5929 48.7686 58.0219 39.3032C56.4313 39.3032 54.8375 39.3032 53.2774 39.3032C51.9786 48.7753 46.5958 54.4628 38.5739 55.0325C29.6615 55.6655 24.3248 50.9682 20.6197 39.0385C19.1371 39.1276 17.5931 39.2204 16.0391 39.3137C17.3592 53.9802 26.7625 61.3472 42.7518 59.8989M33.007 28.7151C33.3296 27.4166 34.2346 25.9215 33.8742 24.8534C32.2796 20.1273 27.4394 17.4565 22.3933 18.1413C17.2418 18.8403 14.0891 22.5273 13.5862 30.167C16.1633 28.3331 18.1617 27.4542 19.369 25.9432C22.2397 22.3504 26.0287 22.4673 28.7817 26.3399C29.5483 27.4184 31.0885 27.9469 33.007 28.7151M40.4885 25.2499C40.6821 26.3871 40.8757 27.5244 41.0693 28.6616C42.5847 28.076 44.6397 27.925 45.5221 26.8296C49.3407 22.0884 51.7961 22.0801 55.5403 26.753C56.5613 28.0273 58.7148 28.3942 61.0125 29.4959C60.8723 23.0196 58.078 19.863 53.4034 18.4254C48.2986 16.8554 44.0951 19.0409 40.4885 25.2499Z" sodipodi:nodetypes="cccccccccccccccccccccccccccc"/><path id="shape4" transform="matrix(6.64615384615385 0 0 6.64615384615385 305.790947446154 438.317322092308)" fill="#0a0a0a" stroke-opacity="0" stroke="#000000" stroke-width="0" stroke-linecap="square" stroke-linejoin="bevel" d="M26.2914 20.941C10.7234 22.3087 1.32014 14.9417 0 0.275216C1.55405 0.181839 3.09804 0.089074 4.58058 0C8.28569 11.9297 13.6224 16.627 22.5348 15.994C30.5567 15.4243 35.9396 9.73676 37.2383 0.264702C38.7984 0.264702 40.3922 0.264702 41.9828 0.264702C42.5539 9.73009 37.5198 16.4896 26.2914 20.941Z" sodipodi:nodetypes="ccccccc"/><path id="shape5" transform="matrix(6.64615384615385 0 0 6.64615384615385 289.488802707692 298.725015246832)" fill="#141414" stroke-opacity="0" stroke="#000000" stroke-width="0" stroke-linecap="square" stroke-linejoin="bevel" d="M19.0542 10.6863C17.5023 9.91185 15.9621 9.38332 15.1955 8.30489C12.4425 4.43223 8.65354 4.31535 5.78281 7.90816C4.5755 9.41915 2.57708 10.298 0 12.132C0.502925 4.49228 3.65558 0.805245 8.80711 0.106217C13.8532 -0.578502 18.6934 2.09223 20.288 6.81838C20.6484 7.88648 19.7434 9.38153 19.0542 10.6863Z" sodipodi:nodetypes="ccccccc"/><path id="shape6" transform="matrix(6.64615384615385 0 0 6.64615384615385 469.239244061538 298.042190997565)" fill="#121212" stroke-opacity="0" stroke="#000000" stroke-width="0" stroke-linecap="square" stroke-linejoin="bevel" d="M0 6.96106C3.4631 1.10861 7.66656 -1.07692 12.7714 0.493053C17.446 1.93069 20.2403 5.08726 20.3805 11.5636C18.0828 10.4619 15.9293 10.095 14.9083 8.82071C11.1642 4.14779 8.70873 4.15605 4.89007 8.89724C4.00773 9.99273 1.9527 10.1437 0.437309 10.7293C0.243705 9.59208 0.050109 8.45484 0 6.96106Z" sodipodi:nodetypes="ccccccc"/>
</svg>
