<?xml version="1.0" standalone="no"?>
<!DOCTYPE svg PUBLIC "-//W3C//DTD SVG 20010904//EN" "http://www.w3.org/TR/2001/REC-SVG-20010904/DTD/svg10.dtd">
<!-- Created using Krita: https://krita.org -->
<svg xmlns="http://www.w3.org/2000/svg" 
    xmlns:xlink="http://www.w3.org/1999/xlink"
    xmlns:krita="http://krita.org/namespaces/svg/krita"
    xmlns:sodipodi="http://sodipodi.sourceforge.net/DTD/sodipodi-0.dtd"
    width="864pt"
    height="864pt"
    viewBox="0 0 864 864">
<defs/>
<path id="shape0" transform="matrix(10.8 0 0 10.8 108.981018 71.9011512)" fill="#c6e3f2" stroke-opacity="0" stroke="#000000" stroke-width="0" stroke-linecap="square" stroke-linejoin="bevel" d="M6.50104 48.3806C6.16513 47.0432 5.85849 45.5238 6.40822 44.438C12.2422 32.9154 21.4734 24.6781 32.5429 18.4642C37.878 15.4693 43.5903 13.1462 49.1335 10.5224C50.5055 9.8729 51.884 9.23696 52.7424 7.78658C31.5498 14.0245 13.6337 24.8438 1.58617 44.9916C1.05744 40.9664 0.528722 36.9412 0 32.9159C0.39946 32.8053 0.798921 32.6948 1.19838 32.5842C1.86179 33.5478 2.52521 34.5114 3.18862 35.4751C3.67521 35.5501 4.1618 35.6251 4.64838 35.7C2.93469 29.5304 2.57068 23.9451 9.74488 21.2756C9.93061 23.1207 10.0958 24.7617 10.261 26.4027C10.6192 26.6699 10.9775 26.937 11.3357 27.2042C13.8098 14.4912 23.8292 11.2855 33.8081 8.13101C34.7483 7.83378 36.0282 8.61105 37.119 8.88166C44.0386 2.59416 53.9557 4.71671 61.8316 0C60.9937 9.2359 49.4598 18.8097 41.1589 17.2376C41.5029 18.2256 41.757 18.9552 42.2281 20.3081C36.4723 23.7664 30.3856 27.4233 24.2897 31.0858C24.9703 31.304 26.304 31.7315 28.4764 32.4279C26.5519 34.9034 25.2106 37.7855 22.9506 39.21C20.6965 40.6307 17.5216 40.5905 14.7504 41.1907C14.7448 41.6451 14.7392 42.0994 14.7336 42.5538C16.7665 42.8999 18.7995 43.246 21.3907 43.6872C17.5075 49.4156 12.076 48.4775 6.50104 48.3806Z" sodipodi:nodetypes="ccccccccccccccccccccccccc"/><path id="shape1" transform="matrix(10.8 0 0 10.8 52.7210748 609.9724224)" fill="#c6e3f2" stroke-opacity="0" stroke="#000000" stroke-width="0" stroke-linecap="square" stroke-linejoin="bevel" d="M0 11.3724C1.84062 7.32549 3.65735 3.66275 5.47409 0C6.19732 0.359375 6.92055 0.71875 7.64378 1.07813C5.74174 4.88723 3.85043 8.70201 1.86064 12.4647C1.8209 12.5398 0.629968 12.0062 0 11.3724Z" sodipodi:nodetypes="ccccc"/>
</svg>
