<?xml version="1.0" standalone="no"?>
<!DOCTYPE svg PUBLIC "-//W3C//DTD SVG 20010904//EN" "http://www.w3.org/TR/2001/REC-SVG-20010904/DTD/svg10.dtd">
<!-- Created using Krita: https://krita.org -->
<svg xmlns="http://www.w3.org/2000/svg" 
    xmlns:xlink="http://www.w3.org/1999/xlink"
    xmlns:krita="http://krita.org/namespaces/svg/krita"
    xmlns:sodipodi="http://sodipodi.sourceforge.net/DTD/sodipodi-0.dtd"
    width="864pt"
    height="864pt"
    viewBox="0 0 864 864">
<defs/>
<path id="shape0" transform="matrix(6.64615384615385 0 0 6.64615384615385 6.64616713846154 6.64619372307692)" fill="#030303" stroke-opacity="0" stroke="#000000" stroke-width="0" stroke-linecap="square" stroke-linejoin="bevel" d="M69 130C45.6667 130 22.8333 130 4e-06 130C2e-06 86.6667 2e-06 43.3333 0 1.2e-05C43.3333 6e-06 86.6666 6e-06 130 0C130 43.3333 130 86.6666 130 130C109.833 130 89.6667 130 69 130M6.17218 82.4999C6.17218 96.5894 6.17218 110.679 6.17218 124.701C46.5276 124.701 86.2566 124.701 125.872 124.701C125.872 84.691 125.872 44.9763 125.872 5.31633C85.8693 5.31633 46.1588 5.31633 6.17218 5.31633C6.17218 30.9188 6.17218 56.2093 6.17218 82.4999Z" sodipodi:nodetypes="cccccccccccc"/><path id="shape1" transform="matrix(6.64615384615384 0 0 6.64615384615384 47.6673984000001 41.9793607384616)" fill="#c6e3f2" stroke-opacity="0" stroke="#000000" stroke-width="0" stroke-linecap="square" stroke-linejoin="bevel" d="M0 76.6836C1e-06 50.893 1e-06 25.6024 1e-06 0C39.9867 0 79.6971 0 119.7 0C119.7 39.66 119.7 79.3747 119.7 119.385C80.0844 119.385 40.3554 119.385 0 119.385C0 105.363 0 91.2731 0 76.6836M41.2236 65.7038C43.3617 65.7038 45.4999 65.7038 47.6214 65.7038C47.8899 74.0156 44.8735 77.8582 37.5393 79.7306C36.1306 80.0902 35.1141 81.9856 33.9166 83.1725C35.5535 83.8504 37.2798 85.268 38.8123 85.0828C47.0951 84.0818 53.1226 77.3591 53.355 68.6682C53.622 58.6817 53.51 48.6821 53.4043 38.6899C53.3537 33.9003 51.1176 31.79 46.2736 31.7144C40.2789 31.6208 34.2809 31.6306 28.2858 31.7108C23.294 31.7776 20.9295 34.0735 20.8591 38.981C20.7659 45.4755 20.7677 51.9733 20.8582 58.4678C20.9281 63.4931 23.1312 65.5986 28.2565 65.6893C32.2527 65.76 36.2511 65.7037 41.2236 65.7038M91.1436 32.6317C82.8867 32.3798 74.618 31.7751 66.379 32.0526C63.1565 32.1611 61.718 35.2861 61.7814 38.7531C61.897 45.0779 61.7893 51.4064 61.8208 57.7331C61.8515 63.9282 63.6041 65.6606 69.8656 65.6911C76.1029 65.7215 82.3406 65.6977 88.5639 65.6977C88.4741 74.3737 85.6384 77.7793 78.0139 79.7549C76.7039 80.0943 75.7678 81.8767 74.659 82.9925C76.0779 83.77 77.5349 85.277 78.9094 85.2051C86.9863 84.7828 93.7823 77.6264 93.9325 69.3474C94.1197 59.0279 94.0893 48.7009 93.9016 38.3817C93.8691 36.5987 92.5889 34.8384 91.1436 32.6317Z" sodipodi:nodetypes="ccccccccccccccccccccccccccccccc"/><path id="shape2" transform="matrix(6.64615384615385 0 0 6.64615384615385 185.839501927103 252.312876218021)" fill="#0c0c0c" stroke-opacity="0" stroke="#000000" stroke-width="0" stroke-linecap="square" stroke-linejoin="bevel" d="M19.9463 34.0564C15.4614 34.0563 11.4629 34.1126 7.46676 34.0419C2.34138 33.9512 0.138347 31.8457 0.0683819 26.8204C-0.0220401 20.3259 -0.0238551 13.8281 0.0693069 7.33361C0.139703 2.42607 2.50421 0.130167 7.49601 0.0633831C13.4911 -0.0168249 19.4891 -0.0265829 25.4838 0.0670031C30.3278 0.14263 32.5639 2.25289 32.6145 7.04246C32.7202 17.0347 32.8323 27.0343 32.5652 37.0208C32.3328 45.7117 26.3053 52.4344 18.0225 53.4354C16.49 53.6206 14.7637 52.203 13.1268 51.5251C14.3243 50.3382 15.3409 48.4428 16.7495 48.0832C24.0837 46.2108 27.1002 42.3682 26.8316 34.0564C24.7101 34.0564 22.572 34.0564 19.9463 34.0564M25.3599 28.1528C25.894 27.8655 26.8909 27.5838 26.8945 27.29C26.9815 20.2335 26.9623 13.1758 26.9623 6.35819C19.6083 6.35819 12.8873 6.35819 6.29452 6.35819C6.29452 13.7551 6.29452 20.8226 6.29452 28.1597C12.4975 28.1597 18.4428 28.1597 25.3599 28.1528Z" sodipodi:nodetypes="ccccccccccccccccccc"/><path id="shape3" transform="matrix(6.64615384615385 0 0 6.64615384615385 458.262651194471 254.539892755906)" fill="#080808" stroke-opacity="0" stroke="#000000" stroke-width="0" stroke-linecap="square" stroke-linejoin="bevel" d="M29.735 0.867159C30.8095 2.85591 32.0897 4.61622 32.1222 6.39922C32.3099 16.7184 32.3404 27.0455 32.1531 37.3649C32.0029 45.6439 25.207 52.8003 17.13 53.2226C15.7556 53.2945 14.2985 51.7876 12.8797 51.01C13.9885 49.8942 14.9246 48.1118 16.2345 47.7724C23.859 45.7968 26.6947 42.3912 26.7846 33.7152C20.5612 33.7152 14.3236 33.739 8.08618 33.7086C1.82473 33.6781 0.0721487 31.9457 0.0413717 25.7506C0.00993069 19.4239 0.117627 13.0954 0.00200369 6.77061C-0.0613813 3.30362 1.3771 0.178633 4.59958 0.0700925C12.8386 -0.207433 21.1074 0.39733 29.735 0.867159M26.8802 16.2106C26.8802 12.7857 26.8802 9.36072 26.8802 5.93204C19.5416 5.93204 12.8029 5.93204 5.96544 5.93204C5.96544 13.2435 5.96544 20.3059 5.96544 27.4682C12.9939 27.4682 19.8258 27.4682 26.8802 27.4682C26.8802 23.797 26.8802 20.496 26.8802 16.2106Z" sodipodi:nodetypes="cccccccccccccccccc"/><path id="shape4" transform="matrix(6.64615384615385 0 0 6.64615384615385 227.673869538462 294.570365538462)" fill="#c6e3f2" stroke-opacity="0" stroke="#000000" stroke-width="0" stroke-linecap="square" stroke-linejoin="bevel" d="M18.5795 21.7981C12.1483 21.8015 6.20298 21.8015 0 21.8015C0 14.4644 0 7.39693 0 0C6.59283 0 13.3137 0 20.6677 0C20.6677 6.8176 20.687 13.8753 20.6 20.9318C20.5963 21.2256 19.5995 21.5073 18.5795 21.7981Z" sodipodi:nodetypes="cccccc"/><path id="shape5" transform="matrix(6.64615384615385 0 0 6.64615384615385 497.909854523077 293.965133538462)" fill="#c6e3f2" stroke-opacity="0" stroke="#000000" stroke-width="0" stroke-linecap="square" stroke-linejoin="bevel" d="M20.9148 10.7708C20.9148 14.564 20.9148 17.8649 20.9148 21.5361C13.8603 21.5361 7.02846 21.5361 0 21.5361C0 14.3739 0 7.31146 0 0C6.83749 0 13.5761 0 20.9148 0C20.9148 3.42868 20.9148 6.85362 20.9148 10.7708Z" sodipodi:nodetypes="cccccc"/>
</svg>
