<?xml version="1.0" standalone="no"?>
<!DOCTYPE svg PUBLIC "-//W3C//DTD SVG 20010904//EN" "http://www.w3.org/TR/2001/REC-SVG-20010904/DTD/svg10.dtd">
<!-- Created using Krita: https://krita.org -->
<svg xmlns="http://www.w3.org/2000/svg" 
    xmlns:xlink="http://www.w3.org/1999/xlink"
    xmlns:krita="http://krita.org/namespaces/svg/krita"
    xmlns:sodipodi="http://sodipodi.sourceforge.net/DTD/sodipodi-0.dtd"
    width="864pt"
    height="864pt"
    viewBox="0 0 864 864">
<defs/>
<path id="shape0" transform="matrix(6.64615384615385 0 0 6.64615384615385 6.64615384615385 6.64617378461538)" fill="#030303" stroke-opacity="0" stroke="#000000" stroke-width="0" stroke-linecap="square" stroke-linejoin="bevel" d="M0 48C0 31.6667 0 15.8333 0 6e-06C43.3333 3e-06 86.6666 3e-06 130 0C130 43.3333 130 86.6666 130 130C86.6667 130 43.3334 130 5.2e-05 130C0 102.833 0 75.6667 0 48M50.5 5.00088C35.7664 5.00088 21.0328 5.00088 6.38241 5.00088C6.38241 45.365 6.38241 84.9526 6.38241 124.624C46.4261 124.624 86.2549 124.624 125.99 124.624C125.99 84.6493 125.99 45.0493 125.99 5.00088C101.045 5.00088 76.2723 5.00088 50.5 5.00088Z" sodipodi:nodetypes="cccccccccccc"/><path id="shape1" transform="matrix(6.64615384615385 0 0 6.64615384615385 49.0646459076923 39.8828049230769)" fill="#c6e3f2" stroke-opacity="0" stroke="#000000" stroke-width="0" stroke-linecap="square" stroke-linejoin="bevel" d="M44.6176 0C69.8899 0 94.6622 0 119.608 0C119.608 40.0484 119.608 79.6484 119.608 119.623C79.8725 119.623 40.0437 119.623 0 119.623C0 79.9517 0 40.3641 0 0C14.6504 0 29.384 0 44.6176 0M32.1055 98.0805C33.3156 104.132 37.7031 99.6061 40.6857 101.196C40.8894 97.8399 41.0572 95.0742 41.2294 92.2353C58.0429 92.2353 74.6427 92.2353 91.7703 92.2353C91.7703 95.1639 91.7703 97.889 91.7703 100.529C99.9516 101.625 99.9083 101.62 100.644 94.4886C100.736 93.597 101.909 92.8204 102.01 91.9258C102.429 88.2344 103.924 83.9596 102.621 80.9352C100.39 75.7594 97.551 70.9876 97.5932 65.1065C97.6618 55.5385 95.5433 53.4891 85.8757 53.4817C78.4802 53.476 71.0846 53.4805 63.4561 53.4805C70.914 32.4872 65.9262 17.2397 50.0264 10.9276C35.5281 5.17176 19.4401 12.1532 13.3279 26.8531C6.7584 42.6526 14.4545 56.5956 36.0491 66.2626C34.0319 70.9787 31.4944 75.5926 30.1384 80.5309C29.1851 84.0024 28.4071 89.041 30.188 91.3079C31.8949 93.4806 31.7181 95.1842 32.1055 98.0805M74.4966 38.8748C74.8054 39.4811 75.532 40.4262 75.3579 40.641C73.7726 42.5968 72.0303 44.4254 70.1487 46.4949C76.9656 48.9361 81.9304 48.1384 82.224 44.9338C80.5621 44.6977 78.9001 44.4616 76.8472 44.1699C79.1197 41.4115 80.9934 39.1372 83.4686 36.1326C78.3813 36.1326 74.5458 36.1326 70.7103 36.1326C70.5742 36.5893 70.4381 37.046 70.3019 37.5026C71.4321 37.9592 72.5623 38.4157 74.4966 38.8748M96.1017 29.0883C98.1087 26.7299 100.116 24.3715 102.787 21.2321C97.5215 21.2321 93.7609 21.2321 90.0003 21.2321C90.3275 22.7945 91.075 23.6292 91.998 23.936C93.0994 24.3022 94.3511 24.2162 95.5376 24.3261C95.7283 24.6901 95.919 25.0541 96.1097 25.4181C94.9173 26.3039 93.6351 27.0939 92.5584 28.1032C91.5257 29.0713 90.7061 30.2669 89.718 31.4525C95.288 34.2444 101.043 33.4458 101.333 30.0022C99.6904 29.9254 98.0521 29.8488 96.1017 29.0883Z" sodipodi:nodetypes="cccccccccccccccccccccccccccccccccccccccccc"/><path id="shape2" transform="matrix(6.64615384615385 0 0 6.64615384615385 122.533767332337 99.1312361524372)" fill="#0f0f0f" stroke-opacity="0" stroke="#000000" stroke-width="0" stroke-linecap="square" stroke-linejoin="bevel" d="M21.0484 88.7286C20.6637 86.2695 20.8406 84.5659 19.1337 82.3932C17.3527 80.1263 18.1307 75.0877 19.084 71.6162C20.4401 66.6779 22.9776 62.064 24.9947 57.3479C3.40011 47.6809 -4.29598 33.7379 2.2735 17.9384C8.38576 3.23853 24.4737 -3.74293 38.972 2.01287C54.8718 8.32504 59.8596 23.5725 52.4018 44.5658C60.0302 44.5658 67.4258 44.5613 74.8213 44.567C84.4889 44.5744 86.6074 46.6238 86.5388 56.1918C86.4966 62.0729 89.3351 66.8448 91.5663 72.0205C92.8701 75.0449 91.375 79.3197 90.9558 83.0111C90.8542 83.9057 89.682 84.6823 89.59 85.5739C88.8539 92.7055 88.8972 92.7099 80.7159 91.6148C80.7159 88.9743 80.7159 86.2492 80.7159 83.3206C63.5883 83.3206 46.9885 83.3206 30.175 83.3206C30.0028 86.1595 29.835 88.9252 29.6313 92.2818C26.6487 90.6914 22.2612 95.2174 21.0484 88.7286M38.1642 44.5798C49.5444 44.5797 52.4955 41.8226 53.2915 30.4674C51.2945 29.9447 49.3102 29.4254 47.3259 28.9061C47.4365 28.3734 47.5471 27.8408 47.6577 27.3082C49.5493 27.0645 51.4409 26.8209 53.3137 26.5797C52.6493 13.6809 42.7376 3.85849 30.1245 3.53192C29.9935 5.28858 29.862 7.05176 29.7257 8.8787C28.9882 8.93665 28.1471 9.11196 28.1015 8.98996C27.4068 7.13106 26.8161 5.23328 26.2001 3.34134C12.6181 5.19447 2.63688 15.7498 4.1648 26.6619C5.8895 26.8863 7.6142 27.1107 9.3389 27.3351C9.4346 27.81 9.5303 28.285 9.62599 28.7599C7.62237 29.3797 5.61875 29.9995 3.60862 30.6226C4.6735 42.1368 13.2231 51.4758 23.7497 52.5319C24.4242 48.4742 26.0853 45.1717 30.7341 44.7157C32.8805 44.5052 35.0584 44.6152 38.1642 44.5798M26.9389 53.1639C26.9317 61.1258 26.9317 61.1258 29.7228 62.0354C29.7875 61.1749 29.9753 60.3781 29.8841 59.6146C29.3037 54.7576 31.4944 53.0055 36.2327 53.3687C40.0358 53.6602 43.8889 53.5982 47.702 53.381C51.8088 53.147 54.0916 54.3266 53.6801 58.9498C53.5873 59.9913 54.7093 61.1409 55.2722 62.2408C55.7067 61.1885 56.5744 60.105 56.5011 59.0895C56.1775 54.6078 58.3279 53.1816 62.4965 53.3833C66.6449 53.5841 70.8165 53.5654 74.9671 53.3881C78.9728 53.2169 80.8665 54.7335 80.6301 58.9077C80.5633 60.0871 81.4079 61.3181 81.8345 62.5254C82.4127 62.3721 82.991 62.2188 83.5692 62.0656C83.5692 59.2707 83.5237 56.4748 83.5799 53.681C83.6624 49.5872 81.8235 47.5091 77.6131 47.5195C62.644 47.5564 47.6747 47.5445 32.7055 47.5224C29.4067 47.5175 27.2506 48.7671 26.9389 53.1639M22.2321 74.2125C21.7557 75.9698 21.2793 77.7272 20.7432 79.7047C44.0647 79.7047 66.7345 79.7047 89.2388 79.7047C89.2388 77.7361 89.2388 76.1323 89.2388 74.1683C67.0701 74.1683 45.1427 74.1683 22.2321 74.2125M31.1647 65.2423C23.6623 65.2455 23.6623 65.2455 24.6509 70.9097C45.2007 70.9097 65.7603 70.9097 86.2325 70.9097C87.3452 66.5474 85.8962 65.1006 81.5403 65.1569C65.0781 65.3696 48.6115 65.2424 31.1647 65.2423M59.7939 56.9392C59.7939 58.6612 59.7939 60.3832 59.7939 61.9892C65.9379 61.9892 71.6437 61.9892 77.6127 61.9892C77.4989 59.9862 77.4019 58.2804 77.2965 56.4252C71.4162 56.4252 65.987 56.4252 59.7939 56.9392M33.7934 56.4997C33.4014 58.2592 33.0095 60.0186 32.5504 62.0795C39.0146 62.0795 44.6104 62.0795 50.3472 62.0795C50.3472 60.1603 50.3472 58.4431 50.3472 56.3634C44.9446 56.3634 39.8124 56.3634 33.7934 56.4997Z" sodipodi:nodetypes="cccccccccccccccccccccccccccccccccccccccccccccccccccccccccccccccccccccc"/><path id="shape3" transform="matrix(6.64615384615385 0 0 6.64615384615385 515.283651692308 280.025669907692)" fill="#181818" stroke-opacity="0" stroke="#000000" stroke-width="0" stroke-linecap="square" stroke-linejoin="bevel" d="M3.94585 2.74087C2.41364 2.28305 1.28345 1.82655 0.153244 1.37003C0.289383 0.913356 0.425514 0.456676 0.561653 0C4.39715 0 8.23264 0 13.3199 0C10.8447 3.00458 8.97103 5.27887 6.69854 8.03732C8.75146 8.32899 10.4134 8.5651 12.0757 8.80112C11.7817 12.0058 6.81686 12.8035 0 10.3623C1.88162 8.29278 3.62389 6.46424 5.20916 4.50843C5.38332 4.29355 4.65669 3.34854 3.94585 2.74087Z" sodipodi:nodetypes="ccccccccc"/><path id="shape4" transform="matrix(6.64615384615385 0 0 6.64615384615385 645.343964307692 180.994734276923)" fill="#121212" stroke-opacity="0" stroke="#000000" stroke-width="0" stroke-linecap="square" stroke-linejoin="bevel" d="M6.53985 8.19811C8.33416 8.61666 9.97241 8.69328 11.6151 8.77011C11.3253 12.2137 5.57004 13.0123 0 10.2203C0.988197 9.03477 1.8077 7.83919 2.84044 6.87108C3.9171 5.8618 5.19936 5.07183 6.39172 4.18598C6.20103 3.82199 6.01035 3.45801 5.81966 3.09403C4.6331 2.98412 3.38144 3.07006 2.28008 2.7039C1.35708 2.39703 0.609558 1.56237 0.282325 0C4.04294 0 7.80355 0 13.0693 0C10.3977 3.1394 8.39076 5.4978 6.53985 8.19811Z" sodipodi:nodetypes="cccccccccc"/><path id="shape5" transform="matrix(6.64615384615385 0 0 6.64615384615385 146.538866215385 121.338272492308)" fill="#c6e3f2" stroke-opacity="0" stroke="#000000" stroke-width="0" stroke-linecap="square" stroke-linejoin="bevel" d="M34.0813 41.2385C31.4465 41.2738 29.2687 41.1638 27.1222 41.3744C22.4734 41.8304 20.8124 45.1329 20.1378 49.1906C9.6112 48.1345 1.06162 38.7954 0 27.2796C2.00688 26.6582 4.0105 26.0384 6.01412 25.4186C5.91842 24.9436 5.82272 24.4687 5.72702 23.9938C4.00232 23.7693 2.27762 23.5449 0.552868 23.3203C-0.974995 12.4085 9.00622 1.85313 22.5882 0C23.2042 1.89194 23.7949 3.78973 24.4897 5.64863C24.5353 5.77063 25.3764 5.59532 26.1138 5.53737C26.2501 3.71042 26.3816 1.94724 26.5126 0.190579C39.1257 0.517149 49.0374 10.3396 49.7018 23.2384C47.8291 23.4796 45.9374 23.7232 44.0458 23.9668C43.9352 24.4995 43.8246 25.0321 43.714 25.5647C45.6983 26.0841 47.6826 26.6034 49.6796 27.126C48.8837 38.4812 45.9325 41.2384 34.0813 41.2385M23.2484 19.3521C24.1657 21.8407 20.9333 26.1134 26.4381 26.6346C34.1385 27.3637 37.2668 26.642 37.8085 23.3395C34.041 23.3395 30.3446 23.3395 26.369 23.3395C26.369 21.2801 26.5436 19.7811 26.3165 18.3455C26.1169 17.0833 25.4677 15.8922 25.0171 14.6696C24.4275 15.935 23.838 17.2004 23.2484 19.3521Z" sodipodi:nodetypes="ccccccccccccccccccccccc"/><path id="shape6" transform="matrix(6.64615384615384 0 0 6.64615384615384 301.630179694544 414.95279671499)" fill="#c6e3f2" stroke-opacity="0" stroke="#000000" stroke-width="0" stroke-linecap="square" stroke-linejoin="bevel" d="M0.00264744 5.21922C0.30326 1.24766 2.45934 -0.00196328 5.75809 0.00291572C20.7273 0.0250597 35.6966 0.0369647 50.6657 3.87165e-05C54.8762 -0.0103443 56.715 2.06772 56.6326 6.1616C56.5763 8.95538 56.6218 11.7512 56.6218 14.5461C56.0436 14.6994 55.4654 14.8527 54.8872 15.0059C54.4606 13.7986 53.616 12.5676 53.6828 11.3883C53.9191 7.21407 52.0254 5.69745 48.0197 5.86861C43.8692 6.04596 39.6976 6.06463 35.5491 5.86386C31.3805 5.66212 29.2301 7.08832 29.5537 11.57C29.627 12.5856 28.7593 13.6691 28.3248 14.7213C27.762 13.6215 26.64 12.4718 26.7327 11.4303C27.1443 6.8072 24.8614 5.62752 20.7546 5.86152C16.9415 6.07878 13.0885 6.14072 9.28534 5.84924C4.54703 5.48607 2.3563 7.23818 2.93669 12.0952C3.02791 12.8586 2.84016 13.6554 2.77545 14.516C-0.0156936 13.6064 -0.0156936 13.6064 0.00264744 5.21922Z" sodipodi:nodetypes="ccccccccccccccccc"/><path id="shape7" transform="matrix(6.64615384615385 0 0 6.64615384615385 260.396560246154 592.065457476923)" fill="#c6e3f2" stroke-opacity="0" stroke="#000000" stroke-width="0" stroke-linecap="square" stroke-linejoin="bevel" d="M1.98051 0.022065C24.3995 0 46.3268 0 68.4956 0C68.4956 1.964 68.4956 3.56777 68.4956 5.5364C45.9912 5.5364 23.3214 5.5364 0 5.5364C0.536099 3.55882 1.01249 1.80148 1.98051 0.022065Z" sodipodi:nodetypes="ccccc"/><path id="shape8" transform="matrix(6.64615384615385 0 0 6.64615384615385 283.393332782127 532.16337094557)" fill="#c6e3f2" stroke-opacity="0" stroke="#000000" stroke-width="0" stroke-linecap="square" stroke-linejoin="bevel" d="M7.45219 0.0870504C24.4081 0.0870584 40.8747 0.214278 57.3369 0.00157143C61.6928 -0.0547106 63.1418 1.3921 62.0291 5.7544C41.5568 5.7544 20.9973 5.7544 0.447533 5.7544C-0.541114 0.0902324 -0.541114 0.0902324 7.45219 0.0870504Z" sodipodi:nodetypes="ccccc"/><path id="shape9" transform="matrix(6.64615384615385 0 0 6.64615384615385 519.932948676923 474.141965538462)" fill="#c6e3f2" stroke-opacity="0" stroke="#000000" stroke-width="0" stroke-linecap="square" stroke-linejoin="bevel" d="M0.381927 0.256989C6.19311 0 11.6224 0 17.5027 0C17.6081 1.85513 17.705 3.56096 17.8188 5.56394C11.8498 5.56394 6.14407 5.56394 0 5.56394C0 3.95802 0 2.236 0.381927 0.256989Z" sodipodi:nodetypes="ccccc"/><path id="shape10" transform="matrix(6.64615384615385 0 0 6.64615384615385 338.8684032 473.7309408)" fill="#c6e3f2" stroke-opacity="0" stroke="#000000" stroke-width="0" stroke-linecap="square" stroke-linejoin="bevel" d="M1.68644 0.068184C7.26202 0 12.3942 0 17.7969 0C17.7969 2.0797 17.7969 3.79691 17.7969 5.71613C12.06 5.71613 6.46423 5.71613 0 5.71613C0.45913 3.65519 0.85109 1.89578 1.68644 0.068184Z" sodipodi:nodetypes="ccccc"/><path id="shape11" transform="matrix(6.64615384615385 0 0 6.64615384615385 300.217339642747 218.834803938462)" fill="#212121" stroke-opacity="0" stroke="#000000" stroke-width="0" stroke-linecap="square" stroke-linejoin="bevel" d="M0.125552 4.23937C0.71511 2.5308 1.30462 1.2654 1.89414 0C2.34479 1.22254 2.99397 2.41368 3.19361 3.67592C3.42066 5.11144 3.24608 6.61047 3.24608 8.66988C7.2217 8.66988 10.9181 8.66988 14.6856 8.66988C14.1439 11.9724 11.0156 12.6941 3.31513 11.965C-2.1896 11.4437 1.0428 7.1711 0.125552 4.23937Z" sodipodi:nodetypes="ccccccc"/>
</svg>
