<?xml version="1.0" standalone="no"?>
<!DOCTYPE svg PUBLIC "-//W3C//DTD SVG 20010904//EN" "http://www.w3.org/TR/2001/REC-SVG-20010904/DTD/svg10.dtd">
<!-- Created using Krita: https://krita.org -->
<svg xmlns="http://www.w3.org/2000/svg" 
    xmlns:xlink="http://www.w3.org/1999/xlink"
    xmlns:krita="http://krita.org/namespaces/svg/krita"
    xmlns:sodipodi="http://sodipodi.sourceforge.net/DTD/sodipodi-0.dtd"
    width="864pt"
    height="864pt"
    viewBox="0 0 864 864">
<defs/>
<path id="shape0" transform="matrix(6.64615384615385 0 0 6.64615384615385 6.64619372307692 6.64622030769231)" fill="#030303" stroke-opacity="0" stroke="#000000" stroke-width="0" stroke-linecap="square" stroke-linejoin="bevel" d="M130 44C130 73 130 101.5 130 130C86.6667 130 43.3333 130 1.3e-05 130C7e-06 86.6667 7e-06 43.3334 0 2.1e-05C43.3333 1.1e-05 86.6666 1.1e-05 130 0C130 14.5 130 29 130 44M105.499 5.0013C71.7315 5.0013 37.9639 5.0013 4.03359 5.0013C4.03359 45.1565 4.03359 84.8722 4.03359 124.774C43.9532 124.774 83.6734 124.774 123.597 124.774C123.597 84.8387 123.597 45.1275 123.597 5.0013C117.747 5.0013 112.123 5.0013 105.499 5.0013Z" sodipodi:nodetypes="cccccccccccc"/><path id="shape1" transform="matrix(6.64615384615385 0 0 6.64615384615385 33.4540467692308 39.8856162461538)" fill="#c8c8c8" stroke-opacity="0" stroke="#000000" stroke-width="0" stroke-linecap="square" stroke-linejoin="bevel" d="M101.965 0C108.089 0 113.714 0 119.563 0C119.563 40.1262 119.563 79.8374 119.563 119.773C79.6398 119.773 39.9196 119.773 0 119.773C0 79.8709 0 40.1552 0 0C33.9303 0 67.6979 0 101.965 0M32.7256 6.9934C24.426 7.16673 21.7703 9.84048 21.7651 18.1593C21.7495 42.7971 21.7474 67.435 21.7667 92.0729C21.773 100.051 24.6429 102.983 32.4649 102.996C48.9456 103.023 65.4264 103.021 81.9071 102.995C89.9139 102.983 92.6504 100.244 92.6667 92.1088C92.7063 72.4652 92.7778 52.8203 92.5513 33.1792C92.5245 30.8539 91.2445 28.0701 89.6453 26.3224C84.3732 20.5605 78.8209 15.0321 73.0756 9.74051C71.4569 8.24968 68.8239 7.16674 66.627 7.11416C55.6461 6.85137 44.6556 6.99357 32.7256 6.9934Z" sodipodi:nodetypes="ccccccccccccccccc"/><path id="shape2" transform="matrix(6.64615384615385 0 0 6.64615384615385 178.026466661446 86.1105048193531)" fill="#131313" stroke-opacity="0" stroke="#000000" stroke-width="0" stroke-linecap="square" stroke-linejoin="bevel" d="M11.4442 0.0382383C22.9028 0.0384353 33.8933 -0.103767 44.8742 0.159032C47.0711 0.211609 49.7041 1.29455 51.3228 2.78537C57.0681 8.07699 62.6204 13.6053 67.8925 19.3673C69.4917 21.115 70.7717 23.8987 70.7985 26.2241C71.025 45.8652 70.9535 65.51 70.914 85.1537C70.8976 93.2884 68.1611 96.0275 60.1543 96.0399C43.6736 96.0655 27.1928 96.0674 10.7121 96.0404C2.89007 96.0276 0.0201693 93.0956 0.0139073 85.1177C-0.00543566 60.4799 -0.00328966 35.842 0.0122743 11.2042C0.0175313 2.88535 2.67318 0.2116 11.4442 0.0382383M33.6988 4.19128C26.0395 4.19132 18.3774 4.31734 10.7221 4.14481C6.02257 4.0389 4.17391 6.00324 4.19424 10.6936C4.30176 35.5024 4.23361 60.312 4.25314 85.1213C4.25751 90.6648 5.45504 91.8766 10.952 91.886C27.103 91.9135 43.2541 91.907 59.4051 91.8902C65.728 91.8836 66.6366 90.9896 66.6439 84.677C66.6654 66.1949 66.6591 47.7128 66.6366 29.2307C66.6351 27.9688 66.4099 26.7072 66.2588 25.1346C60.7954 25.1346 55.6487 24.9214 50.5293 25.2045C46.6802 25.4173 45.5904 23.8772 45.7487 20.2659C45.9785 15.0256 45.8076 9.76767 45.8076 4.19128C41.6441 4.19128 38.1691 4.19128 33.6988 4.19128M50.0851 9.35942C50.0851 13.1002 50.0851 16.841 50.0851 20.657C54.5874 20.657 58.5574 20.657 64.1191 20.657C58.7769 16.0087 54.4839 12.2733 50.0851 9.35942Z" sodipodi:nodetypes="cccccccccccccccccccccccccccc"/><path id="shape3" transform="matrix(6.64615384615385 0 0 6.64615384615385 205.900898750563 113.630602739766)" fill="#c8c8c8" stroke-opacity="0" stroke="#000000" stroke-width="0" stroke-linecap="square" stroke-linejoin="bevel" d="M30.0025 0.0505268C33.9751 0.0505268 37.45 0.0505268 41.6135 0.0505268C41.6135 5.62691 41.7844 10.8848 41.5546 16.1252C41.3963 19.7364 42.4861 21.2766 46.3353 21.0637C51.4546 20.7807 56.6014 20.9939 62.0648 20.9939C62.2158 22.5665 62.441 23.8281 62.4425 25.09C62.465 43.572 62.4713 62.0542 62.4499 80.5362C62.4425 86.8488 61.5339 87.7428 55.211 87.7494C39.06 87.7663 22.909 87.7728 6.75797 87.7452C1.26097 87.7358 0.0634387 86.5241 0.0590747 80.9805C0.0395377 56.1712 0.107691 31.3616 0.000165697 6.5528C-0.0201643 1.86249 1.8285 -0.101859 6.52799 0.00405283C14.1834 0.176586 21.8455 0.0505608 30.0025 0.0505268M25.5302 54.0885C21.87 54.089 18.1952 53.9013 14.5572 54.1854C13.1628 54.2943 11.8525 55.4802 10.5038 56.1754C11.8575 57.0222 13.1984 58.5791 14.5668 58.6036C25.71 58.8031 36.8594 58.7864 48.0039 58.6245C49.3502 58.6049 50.6783 57.3297 52.0148 56.6365C50.6727 55.7874 49.3543 54.2518 47.9845 54.2044C40.8391 53.9575 33.6806 54.0888 25.5302 54.0885M32.5191 37.7654C26.364 37.766 20.2061 37.6698 14.0563 37.8519C12.8777 37.8868 11.7316 39.0169 10.5704 39.6418C11.6386 40.3896 12.6982 41.773 13.7763 41.7876C25.419 41.9451 37.0653 41.9459 48.708 41.7919C49.798 41.7775 50.8701 40.4139 51.9504 39.6767C50.7971 39.0401 49.6645 37.9028 48.4869 37.8541C43.5047 37.6481 38.5092 37.7659 32.5191 37.7654M27.5229 75.0402C34.5103 75.0397 41.4998 75.1264 48.4828 74.9531C49.6525 74.9241 50.7942 73.7677 51.9488 73.1322C50.8709 72.3939 49.8012 71.0282 48.7136 71.0138C37.0701 70.8597 25.423 70.8606 13.7795 71.0176C12.6999 71.0321 11.6388 72.4103 10.5691 73.1553C11.7287 73.7828 12.8627 74.8873 14.0528 74.9516C18.1999 75.1755 22.3664 75.0395 27.5229 75.0402Z" sodipodi:nodetypes="ccccccccccccccccccccccccccccccccccccc"/><path id="shape4" transform="matrix(6.64615384615385 0 0 6.64615384615385 510.899649230769 145.584724430769)" fill="#c8c8c8" stroke-opacity="0" stroke="#000000" stroke-width="0" stroke-linecap="square" stroke-linejoin="bevel" d="M0.052918 0C4.39882 3.32463 8.69181 7.06 14.034 11.7083C8.47231 11.7083 4.50234 11.7083 0 11.7083C0 7.89238 0 4.15157 0.052918 0Z" sodipodi:nodetypes="cccc"/><path id="shape5" transform="matrix(6.64615384615385 0 0 6.64615384615385 275.710927015385 472.710055068947)" fill="#272727" stroke-opacity="0" stroke="#000000" stroke-width="0" stroke-linecap="square" stroke-linejoin="bevel" d="M15.5246 0.0603895C23.1768 0.0606645 30.3353 -0.0706985 37.4807 0.17628C38.8505 0.223628 40.1689 1.75927 41.511 2.6083C40.1745 3.30155 38.8464 4.57676 37.5 4.59632C26.3556 4.7582 15.2062 4.77493 4.06296 4.57543C2.69459 4.55094 1.35365 2.99402 0 2.14725C1.34864 1.45208 2.65895 0.266108 4.05336 0.157237C7.69136 -0.126828 11.3662 0.0608395 15.5246 0.0603895Z" sodipodi:nodetypes="cccccccc"/><path id="shape6" transform="matrix(6.64615384615385 0 0 6.64615384615385 276.153594092308 364.405325283652)" fill="#0f0f0f" stroke-opacity="0" stroke="#000000" stroke-width="0" stroke-linecap="square" stroke-linejoin="bevel" d="M22.4484 0.033071C27.9388 0.033608 32.9343 -0.084231 37.9164 0.121758C39.0941 0.170445 40.2267 1.30781 41.38 1.94436C40.2996 2.68155 39.2275 4.04518 38.1376 4.05959C26.4949 4.21358 14.8485 4.21279 3.20589 4.05528C2.12778 4.0407 1.06819 2.6573 0 1.90947C1.16114 1.28464 2.30731 0.154538 3.48592 0.119634C9.63564 -0.062499 15.7936 0.033704 22.4484 0.033071Z" sodipodi:nodetypes="cccccccc"/><path id="shape7" transform="matrix(6.64615384615385 0 0 6.64615384615385 276.144495507692 584.83635057137)" fill="#0f0f0f" stroke-opacity="0" stroke="#000000" stroke-width="0" stroke-linecap="square" stroke-linejoin="bevel" d="M16.4552 4.14123C11.7973 4.14045 7.6308 4.27652 3.48372 4.05254C2.29362 3.98827 1.15969 2.88383 0 2.25632C1.06971 1.51131 2.13087 0.133123 3.21043 0.118559C14.8539 -0.0384311 26.501 -0.0393241 38.1446 0.11476C39.2321 0.129156 40.3018 1.4949 41.3798 2.23321C40.2252 2.86868 39.0835 4.02508 37.9138 4.05411C30.9307 4.22741 23.9412 4.1407 16.4552 4.14123Z" sodipodi:nodetypes="cccccccc"/>
</svg>
