<?xml version="1.0" standalone="no"?>
<!DOCTYPE svg PUBLIC "-//W3C//DTD SVG 20010904//EN" "http://www.w3.org/TR/2001/REC-SVG-20010904/DTD/svg10.dtd">
<!-- Created using Krita: https://krita.org -->
<svg xmlns="http://www.w3.org/2000/svg" 
    xmlns:xlink="http://www.w3.org/1999/xlink"
    xmlns:krita="http://krita.org/namespaces/svg/krita"
    xmlns:sodipodi="http://sodipodi.sourceforge.net/DTD/sodipodi-0.dtd"
    width="864pt"
    height="864pt"
    viewBox="0 0 864 864">
<defs/>
<path id="shape0" transform="matrix(6.64615384615385 0 0 6.64615384615385 6.64619372307692 6.64622030769231)" fill="#030303" stroke-opacity="0" stroke="#000000" stroke-width="0" stroke-linecap="square" stroke-linejoin="bevel" d="M130 44C130 73 130 101.5 130 130C86.6667 130 43.3333 130 1.3e-05 130C7e-06 86.6667 7e-06 43.3334 0 2.1e-05C43.3333 1.1e-05 86.6666 1.1e-05 130 0C130 14.5 130 29 130 44M105.499 5.0013C71.7315 5.0013 37.9639 5.0013 4.03359 5.0013C4.03359 45.1565 4.03359 84.8722 4.03359 124.774C43.9532 124.774 83.6734 124.774 123.597 124.774C123.597 84.8387 123.597 45.1275 123.597 5.0013C117.747 5.0013 112.123 5.0013 105.499 5.0013Z" sodipodi:nodetypes="cccccccccccc"/><path id="shape1" transform="matrix(6.64615384615385 0 0 6.64615384615385 178.026466720573 86.1105032839723)" fill="#131313" stroke-opacity="0" stroke="#000000" stroke-width="0" stroke-linecap="square" stroke-linejoin="bevel" d="M11.4442 0.0382385C22.9028 0.0384355 33.8933 -0.103767 44.8742 0.159032C47.0711 0.211609 49.7041 1.29455 51.3228 2.78537C57.0681 8.07699 62.6204 13.6053 67.8925 19.3673C69.4917 21.115 70.7717 23.8987 70.7985 26.2241C71.025 45.8652 70.9535 65.51 70.914 85.1537C70.8976 93.2884 68.1611 96.0275 60.1543 96.0399C43.6736 96.0655 27.1928 96.0674 10.7121 96.0404C2.89007 96.0276 0.0201693 93.0956 0.0139073 85.1177C-0.00543567 60.4799 -0.00328967 35.842 0.0122743 11.2042C0.0175313 2.88535 2.67318 0.2116 11.4442 0.0382385M33.6988 4.19128C26.0395 4.19132 18.3774 4.31734 10.7221 4.14481C6.02257 4.0389 4.17391 6.00324 4.19424 10.6936C4.30176 35.5024 4.23361 60.312 4.25314 85.1213C4.25751 90.6648 5.45504 91.8766 10.952 91.886C27.103 91.9135 43.2541 91.907 59.4051 91.8902C65.728 91.8836 66.6366 90.9896 66.6439 84.677C66.6654 66.1949 66.6591 47.7128 66.6366 29.2307C66.6351 27.9688 66.4099 26.7072 66.2588 25.1346C60.7954 25.1346 55.6487 24.9214 50.5293 25.2045C46.6802 25.4173 45.5904 23.8772 45.7487 20.2659C45.9785 15.0256 45.8076 9.76767 45.8076 4.19128C41.6441 4.19128 38.1691 4.19128 33.6988 4.19128M50.0851 9.35942C50.0851 13.1002 50.0851 16.841 50.0851 20.657C54.5874 20.657 58.5574 20.657 64.1191 20.657C58.7769 16.0087 54.4839 12.2733 50.0851 9.35942Z" sodipodi:nodetypes="cccccccccccccccccccccccccccc"/><path id="shape2" transform="matrix(6.64615384615385 0 0 6.64615384615385 275.710927015385 472.710056307745)" fill="#272727" stroke-opacity="0" stroke="#000000" stroke-width="0" stroke-linecap="square" stroke-linejoin="bevel" d="M15.5246 0.0603893C23.1768 0.0606643 30.3353 -0.0706987 37.4807 0.17628C38.8505 0.223628 40.1689 1.75927 41.511 2.6083C40.1745 3.30155 38.8464 4.57676 37.5 4.59632C26.3556 4.7582 15.2062 4.77493 4.06296 4.57543C2.69459 4.55094 1.35365 2.99402 0 2.14725C1.34864 1.45208 2.65895 0.266108 4.05336 0.157237C7.69136 -0.126828 11.3662 0.0608393 15.5246 0.0603893Z" sodipodi:nodetypes="cccccccc"/><path id="shape3" transform="matrix(6.64615384615385 0 0 6.64615384615385 276.153594092308 364.405325411057)" fill="#0f0f0f" stroke-opacity="0" stroke="#000000" stroke-width="0" stroke-linecap="square" stroke-linejoin="bevel" d="M22.4484 0.033071C27.9388 0.033608 32.9343 -0.084231 37.9164 0.121758C39.0941 0.170445 40.2267 1.30781 41.38 1.94436C40.2996 2.68155 39.2275 4.04518 38.1376 4.05959C26.4949 4.21358 14.8485 4.21279 3.20589 4.05528C2.12778 4.0407 1.06819 2.6573 0 1.90947C1.16114 1.28464 2.30731 0.154538 3.48592 0.119634C9.63564 -0.062499 15.7936 0.033704 22.4484 0.033071Z" sodipodi:nodetypes="cccccccc"/><path id="shape4" transform="matrix(6.64615384615385 0 0 6.64615384615385 276.144495507692 584.836350304132)" fill="#0f0f0f" stroke-opacity="0" stroke="#000000" stroke-width="0" stroke-linecap="square" stroke-linejoin="bevel" d="M16.4552 4.14123C11.7973 4.14045 7.6308 4.27652 3.48372 4.05254C2.29362 3.98827 1.15969 2.88383 0 2.25632C1.06971 1.51131 2.13087 0.133123 3.21043 0.118559C14.8539 -0.0384311 26.501 -0.0393241 38.1446 0.11476C39.2321 0.129156 40.3018 1.4949 41.3798 2.23321C40.2252 2.86868 39.0835 4.02508 37.9138 4.05411C30.9307 4.22741 23.9412 4.1407 16.4552 4.14123Z" sodipodi:nodetypes="cccccccc"/>
</svg>
