<svg version="1.1" id="Layer_1" xmlns="http://www.w3.org/2000/svg" xmlns:xlink="http://www.w3.org/1999/xlink" x="0px" y="0px"
	 width="100%" viewBox="0 0 2185 1795" enable-background="new 0 0 2185 1795" xml:space="preserve">
<path fill="none" opacity="1.000000" stroke="#000000" stroke-linecap="round" stroke-linejoin="round" stroke-width="8.000000"
	d="
M428.000000,396.500000 
	C424.893768,403.413147 426.750885,409.941803 428.122437,417.072632 
	C430.050842,427.098389 432.805939,436.933929 434.574738,446.986847 
	C435.672180,453.224335 437.927216,459.266602 438.903473,465.515076 
	C440.513580,475.820587 443.716064,485.748810 445.533051,495.994141 
	C446.514282,501.527008 447.695282,507.033905 449.035797,512.491211 
	C450.621277,518.945679 451.992065,525.429871 453.023071,531.996399 
	C453.783661,536.840454 454.782593,541.722534 455.819000,546.429749 
	C458.238647,557.419495 460.067474,568.540039 462.693207,579.453491 
	C465.174561,589.766785 466.576172,600.282532 469.288605,610.555786 
	C470.475647,615.051880 471.492065,619.764099 472.045837,624.494629 
	C472.738037,630.407043 474.871155,636.016357 475.686584,641.974487 
	C476.535828,648.179443 478.143005,654.369568 479.710754,660.445618 
	C481.257874,666.441589 481.811218,672.628174 483.827576,678.558655 
	C485.166595,682.496887 485.299011,686.878906 486.406036,691.025085 
	C488.250519,697.933105 489.504333,704.999084 490.998627,712.000305 
	C492.172180,717.498840 493.338287,722.998962 494.498901,728.500244 
	C496.502869,737.999390 498.480469,747.504150 500.505096,756.998901 
	C502.816193,767.836975 505.218689,778.655823 507.484039,789.503357 
	C509.394989,798.653809 511.037537,807.861511 513.033936,816.992554 
	C515.324463,827.468811 517.672424,837.924194 519.743591,848.452087 
	C520.860046,854.127258 521.962219,859.936829 523.781555,865.570557 
	C525.153442,869.818726 525.452698,874.534790 526.473022,879.006165 
	C527.912781,885.315186 529.153564,891.669495 530.503723,897.999207 
	C531.819885,904.169556 532.970154,910.384827 534.568298,916.482117 
	C535.653076,920.620728 535.861633,925.017700 537.216125,928.925110 
	C538.854980,933.652771 538.713501,937.948853 537.500000,942.500000 
"/>
<path fill="none" opacity="1.000000" stroke="#000000" stroke-linecap="round" stroke-linejoin="round" stroke-width="10.000000"
	d="
M1842.500000,62.500000 
	C1834.805054,65.430511 1832.407227,72.968613 1828.592773,79.058113 
	C1815.847778,99.404671 1803.493164,119.995857 1791.001831,140.501099 
	C1774.062012,168.308640 1757.044800,196.062820 1739.642944,223.590393 
	C1726.449463,244.461136 1713.538086,265.529968 1700.688110,286.614624 
	C1688.000000,307.433746 1674.991577,328.058777 1662.430420,348.958160 
	C1653.286377,364.172119 1643.174561,378.806396 1634.099854,394.059418 
	C1626.408691,406.987000 1618.298950,419.645630 1610.495361,432.497192 
	C1606.295288,439.414337 1601.697266,446.119781 1597.671875,453.099121 
	C1592.507080,462.053345 1586.881714,470.695892 1581.499268,479.499573 
	C1567.334595,502.667511 1553.245483,525.882263 1538.924927,548.953369 
	C1536.439087,552.958252 1533.512207,557.054993 1528.000000,557.500000 
"/>
<path fill="none" opacity="1.000000" stroke="#000000" stroke-linecap="round" stroke-linejoin="round" stroke-width="10.000000"
	d="
M1879.500000,2.000000 
	C1872.839233,3.056909 1870.755493,9.011143 1867.581177,13.556665 
	C1862.609009,20.676603 1858.370850,28.307266 1853.445435,35.462406 
	C1847.979248,43.402950 1846.506470,52.836124 1843.056519,61.522423 
	C1842.793213,62.185028 1843.100464,63.323132 1843.537964,63.974483 
	C1846.340088,68.146034 1846.055786,72.826744 1846.007935,77.500084 
	C1845.822144,95.666550 1846.190918,113.856476 1845.390503,131.995163 
	C1843.736206,169.487167 1843.996826,206.998810 1843.233276,244.494568 
	C1842.778320,266.825958 1842.409790,289.165344 1841.864014,311.496674 
	C1841.566650,323.669708 1842.264893,335.871765 1841.377686,347.991058 
	C1840.133179,364.990356 1840.937378,382.049469 1839.765503,398.983765 
	C1838.322510,419.838837 1838.862061,440.663147 1838.490356,461.499817 
	C1838.082764,484.347900 1835.165894,507.097961 1835.921631,530.002563 
	C1836.114014,535.833252 1838.798828,541.448242 1834.886719,547.740417 
	C1832.598267,551.421265 1834.095215,557.498840 1834.014038,562.500244 
	C1833.805664,575.332886 1833.894653,588.174683 1833.444214,600.998047 
	C1832.835205,618.339233 1832.442749,635.725220 1830.786377,652.979492 
	C1829.677368,664.532288 1830.289429,676.001465 1830.060303,687.501221 
	C1829.512451,715.004883 1827.927612,742.478271 1827.939209,770.000000 
	C1827.945557,785.166565 1827.668213,800.349854 1826.919678,815.496033 
	C1825.857422,836.995483 1826.633179,858.517151 1825.831543,879.993713 
	C1825.097412,899.660828 1823.970825,919.309753 1823.999878,939.000000 
	C1824.000366,939.333313 1823.897095,939.709229 1824.014893,939.993835 
	C1828.085693,949.834534 1823.267944,959.635132 1823.844604,969.509094 
	C1824.397095,978.967102 1823.857422,988.507935 1823.462158,997.998413 
	C1822.504517,1020.990784 1822.313721,1043.994995 1821.855469,1066.997070 
	C1821.413818,1089.169922 1821.967773,1111.338379 1821.451538,1133.498901 
	C1820.903931,1156.997803 1820.808228,1180.501709 1820.346558,1203.996948 
	C1820.114258,1215.825684 1819.450073,1227.655518 1819.495972,1239.500000 
	C1819.529053,1248.057129 1821.518311,1250.251099 1829.999878,1251.000732 
	C1843.166870,1252.164429 1856.433594,1252.680298 1869.472046,1254.681885 
	C1882.781738,1256.724854 1896.366577,1255.837158 1909.547852,1259.318726 
	C1914.585327,1260.649292 1920.158081,1259.272949 1925.506104,1259.952026 
	C1946.947021,1262.674561 1968.524170,1264.189697 1989.973999,1266.720581 
	C2001.973267,1268.136353 2014.025024,1269.043945 2026.026001,1270.238647 
	C2039.495972,1271.579712 2052.879883,1273.803711 2066.492432,1274.238037 
	C2075.304199,1274.519165 2084.083252,1276.681641 2092.997803,1277.053467 
	C2095.630371,1277.163086 2097.334473,1279.652466 2099.593994,1280.557983 
	C2105.176025,1279.288208 2107.265137,1274.370117 2109.323730,1270.408325 
	C2117.245361,1255.164062 2126.391602,1240.628906 2134.586182,1225.546753 
	C2143.031494,1210.002686 2152.174805,1194.838013 2160.997314,1179.498535 
	C2167.511230,1168.173096 2173.107666,1156.172607 2180.830322,1145.744629 
	C2185.556396,1139.362671 2185.419922,1133.250854 2185.500000,1126.500000 
"/>
<path fill="none" opacity="1.000000" stroke="#000000" stroke-linecap="round" stroke-linejoin="round" stroke-width="11.000000"
	d="
M1156.000000,152.500000 
	C1152.848633,153.021378 1150.703613,155.032074 1149.017822,157.512100 
	C1136.309448,176.206650 1123.715576,194.973923 1111.375000,213.918579 
	C1104.366699,224.677521 1097.078003,235.272797 1089.961670,245.974533 
	C1082.129517,257.752808 1073.737793,269.164093 1066.069458,281.044891 
	C1057.393188,294.487335 1048.479004,307.761200 1039.539673,321.026703 
	C1024.893188,342.761353 1010.527161,364.684753 995.991638,386.494385 
	C983.865906,404.688385 971.463318,422.701324 959.557129,441.037079 
	C947.623474,459.415222 935.417786,477.629242 923.143555,495.758698 
	C918.201050,503.058899 913.921509,510.722992 909.030945,518.020752 
	C895.109375,538.794922 881.329529,559.664185 867.500854,580.500549 
	C843.831055,616.165222 820.170654,651.835999 796.493835,687.495911 
	C794.039246,691.192749 791.414856,694.778809 789.021423,698.513733 
	C786.019409,703.198425 786.322449,704.763367 789.983398,709.014282 
	C798.793030,719.243469 806.297363,730.442566 814.045654,741.467896 
	C818.968323,748.472717 824.477417,755.063354 829.466736,762.023865 
	C837.255737,772.890015 845.628845,783.323181 853.062866,794.458008 
	C857.554688,801.186035 862.701172,807.474670 867.492676,814.005371 
	C877.017395,826.987244 886.481018,840.013916 896.009155,852.993286 
	C899.954102,858.367065 904.062805,863.621216 907.970459,869.021362 
	C909.644409,871.334595 911.626953,873.162720 913.961182,874.805237 
	C917.111450,877.021851 920.214478,876.729004 923.500366,875.501038 
	C929.173828,873.380920 935.034180,872.023132 940.992920,870.960388 
	C945.726135,870.116272 950.268005,868.442871 954.961243,867.335754 
	C961.133728,865.879761 967.509949,864.808716 973.419739,862.767578 
	C982.320496,859.693237 991.628784,858.555115 1000.549011,855.650574 
	C1009.324097,852.793091 1018.517456,851.236145 1027.495728,848.983154 
	C1039.846069,845.883911 1052.113525,842.435730 1064.518799,839.581909 
	C1072.673584,837.705872 1080.861694,835.759155 1088.912720,833.664612 
	C1097.929810,831.318665 1107.106323,829.442322 1116.041260,826.630920 
	C1124.348145,824.017151 1133.120728,822.895935 1141.455566,820.354187 
	C1146.612549,818.781494 1151.907227,817.811401 1157.061890,816.197510 
	C1162.568237,814.473450 1168.386475,813.569824 1174.005127,812.018433 
	C1179.147705,810.598389 1184.322266,809.288086 1189.503174,808.013184 
	C1194.488403,806.786316 1199.475464,805.543518 1204.507812,804.539001 
	C1208.516357,803.738831 1212.695068,802.845764 1216.390503,801.658875 
	C1225.173340,798.838196 1234.172607,796.915588 1243.056396,794.729126 
	C1251.832886,792.569153 1260.465576,789.774414 1269.442871,788.178467 
	C1273.884521,787.388855 1278.594482,786.270447 1283.049072,784.633484 
	C1287.831909,782.875793 1292.988647,782.114563 1298.003296,781.015076 
	C1302.706055,779.984131 1307.403320,778.673157 1311.926636,777.264526 
	C1320.874023,774.478149 1330.349976,773.940796 1339.077637,770.180115 
	C1342.090088,768.881958 1346.005249,769.464417 1349.498535,769.555481 
	C1353.169800,769.651184 1355.141357,772.083618 1354.906616,776.995544 
	C1354.650879,782.348511 1353.893311,787.706909 1352.955688,792.992126 
	C1350.566528,806.458679 1347.967163,819.883301 1346.445679,833.493958 
	C1345.978271,837.675659 1345.105835,841.883789 1344.263062,845.950867 
	C1341.645996,858.580200 1339.958374,871.359070 1337.684570,884.033142 
	C1335.989258,893.482117 1334.490112,902.998474 1332.983765,912.497437 
	C1330.207153,930.006409 1327.338257,947.500793 1324.498169,964.999695 
	C1322.659180,976.332153 1320.465332,987.601379 1318.710449,998.955261 
	C1317.603149,1006.119141 1316.289917,1013.388184 1314.739014,1020.551758 
	C1313.325439,1027.081421 1312.815552,1033.894287 1311.451782,1040.489990 
	C1308.293457,1055.766602 1306.578613,1071.285645 1303.381836,1086.579834 
	C1302.107788,1092.675171 1300.970947,1099.099854 1300.351807,1105.485596 
	C1299.667236,1112.548584 1297.731079,1119.482544 1296.532104,1126.505493 
	C1295.563721,1132.178711 1294.552734,1137.913818 1293.816406,1143.541382 
	C1292.148682,1156.287720 1289.331543,1168.805542 1287.458618,1181.493896 
	C1286.174438,1190.192383 1284.500000,1198.833374 1283.000000,1207.500000 
"/>
<path fill="none" opacity="1.000000" stroke="#000000" stroke-linecap="round" stroke-linejoin="round" stroke-width="10.000000"
	d="
M698.000000,6.000000 
	C698.153564,16.774817 695.860046,27.352619 694.606384,37.953449 
	C693.484314,47.441772 692.880981,57.049507 691.187012,66.533409 
	C689.218140,77.556793 688.744385,88.842155 687.477844,99.997482 
	C686.246521,110.842400 684.456970,121.637352 683.610352,132.508591 
	C682.828979,142.541916 681.304382,152.508011 680.111633,162.453430 
	C678.913147,172.447723 677.849670,182.516312 676.705078,192.523453 
	C675.508179,202.987137 674.321411,213.513184 673.103821,223.953796 
	C671.880249,234.446014 670.857361,245.038910 669.185974,255.529633 
	C667.081299,268.740082 666.697205,282.216797 664.868958,295.481934 
	C663.698242,303.975983 662.995911,312.499542 662.005066,321.000580 
	C659.539551,342.152588 657.082825,363.305786 654.747070,384.472107 
	C653.570190,395.137085 652.547668,405.858521 651.037170,416.505280 
	C650.166382,422.642975 649.671448,428.833862 648.998718,434.999847 
	C648.339111,441.044617 650.586365,444.150391 656.503052,444.978058 
	C663.985229,446.024689 671.233948,447.970428 678.528625,449.891357 
	C687.240540,452.185547 696.189148,453.565887 704.993530,455.529083 
	C713.356995,457.393890 721.656494,459.543823 730.002441,461.489655 
	C742.326416,464.363007 754.655090,467.218323 767.003784,469.983124 
	C776.317993,472.068481 785.678101,473.948792 794.995667,476.019409 
	C800.519226,477.246857 805.996460,478.681580 811.500977,479.995911 
	C817.163208,481.347839 822.819702,482.727966 828.502808,483.987274 
	C840.542480,486.655243 852.604492,489.173828 864.564758,492.248138 
	C870.102966,493.671753 875.895874,494.552551 881.494202,496.022034 
	C887.793640,497.675507 894.232361,498.692780 900.561646,500.249329 
	C905.421387,501.444458 910.115784,502.621216 914.500000,505.000000 
"/>
<path fill="none" opacity="1.000000" stroke="#000000" stroke-linecap="round" stroke-linejoin="round" stroke-width="14.000000"
	d="
M1829.000000,657.500000 
	C1821.282104,653.936951 1814.139038,658.166260 1807.059814,659.764771 
	C1799.203003,661.538879 1791.376709,663.664490 1783.506348,665.526794 
	C1778.472656,666.717773 1773.522583,668.260254 1768.493774,669.474426 
	C1763.187988,670.755432 1757.724854,671.482056 1752.526978,673.087463 
	C1745.772705,675.173584 1738.836426,676.346191 1732.000488,678.001892 
	C1720.332153,680.828125 1708.595947,683.409363 1697.023804,686.586731 
	C1688.713867,688.868347 1680.256470,690.506104 1671.928955,692.734741 
	C1660.863647,695.695984 1649.652222,698.544739 1638.430664,700.626526 
	C1628.904541,702.393860 1619.728394,705.663635 1610.022827,706.711365 
	C1606.233032,707.120483 1602.410400,708.724426 1598.520508,709.591797 
	C1586.963257,712.168762 1575.572754,715.524353 1563.976318,717.883850 
	C1555.133545,719.683105 1546.332642,721.807739 1537.580078,723.844055 
	C1529.232056,725.786316 1520.819946,727.780823 1512.493530,729.975464 
	C1503.855957,732.252075 1495.257446,734.863525 1486.477417,736.368408 
	C1475.000244,738.335632 1463.967896,742.093201 1452.503784,744.022278 
	C1443.246094,745.580017 1434.429810,749.137573 1425.012207,750.117249 
	C1423.260254,750.299438 1421.649292,750.549805 1420.005371,749.984253 
	C1418.645630,749.516418 1417.407471,749.203552 1415.988159,749.978394 
	C1405.233887,755.849365 1393.131836,757.111877 1381.506958,760.027527 
	C1374.802246,761.709167 1368.202271,763.814331 1361.484863,765.437500 
	C1358.143433,766.244873 1355.769409,768.197754 1353.500000,770.500000 
"/>
<path fill="none" opacity="1.000000" stroke="#000000" stroke-linecap="round" stroke-linejoin="round" stroke-width="14.000000"
	d="
M570.500000,2.000000 
	C550.062622,3.852344 532.090332,12.777443 513.974792,21.447374 
	C497.092682,29.526999 479.961914,37.085381 463.011383,45.024323 
	C447.957123,52.075127 433.138428,59.643208 417.964844,66.421265 
	C399.167145,74.818222 380.596588,83.680710 361.987091,92.472679 
	C343.379272,101.263870 324.637665,109.771591 306.008636,118.518402 
	C289.338959,126.345238 272.522858,133.847076 255.943314,141.883026 
	C237.691910,150.729309 218.974365,158.610443 200.511841,167.025986 
	C192.441360,170.704697 184.463013,174.591843 176.511169,178.522598 
	C169.567596,181.954956 167.112320,181.095566 163.988388,174.005112 
	C156.858459,157.822250 149.141617,141.874847 142.628891,125.448898 
	C133.895264,103.421593 123.743866,82.016785 114.879845,60.048481 
	C108.324463,43.801830 100.637970,28.012728 93.529442,11.986941 
	C92.400803,9.442486 92.539421,6.140384 89.000000,5.250000 
"/>
<path fill="none" opacity="1.000000" stroke="#000000" stroke-linecap="round" stroke-linejoin="round" stroke-width="9.000000"
	d="
M8.500000,701.500000 
	C8.494887,707.171753 13.173114,708.192383 17.005234,709.988831 
	C29.157728,715.685730 41.319965,721.362244 53.502918,726.993713 
	C74.825722,736.849792 96.121819,746.765442 117.511093,756.475525 
	C145.632538,769.241821 173.774689,781.965881 202.018661,794.457825 
	C224.335281,804.328125 246.600800,814.322266 268.896057,824.233826 
	C282.159027,830.130005 295.428772,836.121521 308.557922,842.378479 
	C323.306091,849.406921 338.563721,855.357849 353.480743,862.042969 
	C366.406860,867.835999 379.514557,873.378540 391.843292,880.279907 
	C397.440735,883.413269 403.600525,883.217468 409.065979,886.126038 
	C416.128632,889.884644 423.690735,892.696899 430.994537,896.012085 
	C443.014618,901.467773 455.000000,907.000000 467.000000,912.500000 
	C483.000000,919.833374 498.882141,927.441833 515.055664,934.370117 
	C521.915222,937.308472 528.151428,941.923767 535.991089,942.602844 
	C538.507568,942.820740 539.913513,945.142700 541.042603,947.479431 
	C543.732727,953.046448 544.521240,959.138550 545.895752,965.024353 
	C548.571106,976.480469 550.501648,988.098999 553.142395,999.582214 
	C554.231323,1004.317383 555.466431,1009.354187 555.673157,1014.493042 
	C555.911621,1020.423584 558.810913,1025.650635 563.000000,1030.000000 
"/>
<path fill="none" opacity="1.000000" stroke="#000000" stroke-linecap="round" stroke-linejoin="round" stroke-width="8.000000"
	d="
M605.000000,979.000000 
	C609.705994,988.294006 618.107971,993.845459 625.950623,1000.062256 
	C634.006531,1006.448120 641.588440,1013.427979 649.517700,1019.978577 
	C662.481750,1030.688599 675.246338,1041.634155 688.370300,1052.161743 
	C694.699707,1057.238892 700.814575,1062.692383 707.033203,1067.960815 
	C721.930542,1080.581909 736.973511,1093.031982 752.007263,1105.491211 
	C768.141968,1118.863159 784.589905,1131.870361 800.425659,1145.585815 
	C815.372070,1158.531006 830.812927,1170.858032 846.008301,1183.489990 
	C865.585693,1199.764893 885.091675,1216.120728 904.928162,1232.089233 
	C924.921326,1248.183716 944.326111,1265.008667 964.006836,1281.491821 
	C967.458557,1284.382812 970.935913,1287.250488 974.512817,1289.983276 
	C982.954346,1296.432251 983.705872,1295.514771 988.393188,1286.941528 
	C995.469299,1273.998779 1001.759277,1260.628418 1008.519592,1247.510132 
	C1016.100525,1232.799316 1023.956360,1218.229370 1031.469604,1203.484497 
	C1041.352173,1184.089478 1051.107056,1164.635132 1061.264771,1145.375977 
	C1065.551880,1137.247437 1070.056763,1129.100098 1073.496460,1120.498535 
	C1074.822510,1117.182617 1077.065186,1114.526367 1079.428467,1112.553833 
	C1078.826050,1102.598022 1072.511841,1096.121948 1067.479614,1089.014404 
	C1059.195190,1077.313354 1050.758545,1065.703613 1042.257202,1054.179077 
	C1036.365356,1046.192017 1030.203857,1038.256592 1024.281250,1030.290894 
	C1017.237427,1020.816772 1010.345398,1011.154846 1003.438538,1001.544189 
	C990.989258,984.221313 978.104370,967.212158 965.516052,949.988281 
	C950.447937,929.371399 935.564026,908.619629 920.436401,888.046814 
	C917.938416,884.649597 917.465332,881.324097 918.500000,877.500000 
"/>
<path fill="none" opacity="1.000000" stroke="#000000" stroke-linecap="round" stroke-linejoin="round" stroke-width="9.000000"
	d="
M1302.500000,1422.500000 
	C1290.195923,1424.138672 1279.032837,1429.393555 1267.486450,1433.461426 
	C1258.888672,1436.490479 1250.143677,1439.098511 1241.507812,1442.023315 
	C1235.467041,1444.069214 1229.514893,1446.375488 1223.496460,1448.489868 
	C1214.843628,1451.529297 1206.155151,1454.467285 1197.502686,1457.507324 
	C1183.826172,1462.312866 1170.193481,1467.244507 1156.493042,1471.979980 
	C1139.855591,1477.730835 1123.075928,1483.083618 1106.532227,1489.088867 
	C1095.726318,1493.011597 1084.833374,1496.668945 1074.016357,1500.545654 
	C1062.552002,1504.654053 1051.150146,1508.921143 1039.512451,1512.540161 
	C1033.275269,1514.479858 1027.172729,1516.851074 1020.998596,1518.995972 
	C1011.837463,1522.178467 1002.489075,1524.908936 993.560608,1528.644775 
	C987.295898,1531.266235 980.689514,1532.730469 974.465698,1535.420654 
	C968.962646,1537.799316 963.100952,1539.333252 957.514221,1541.536011 
	C947.149597,1545.622314 935.706421,1547.045166 926.512329,1554.016235 
	C925.884827,1554.492188 925.453979,1555.220215 924.499512,1555.002197 
	C917.868713,1553.488159 912.364319,1557.221802 906.528076,1559.087769 
	C897.596130,1561.943359 888.934326,1565.602417 880.078430,1568.722656 
	C872.345642,1571.447266 864.644714,1574.443237 856.983582,1577.458252 
	C852.619812,1579.175537 848.335266,1581.498047 843.504517,1581.351685 
	C842.501953,1581.321289 842.109497,1581.641235 841.502319,1582.003906 
	C828.268799,1589.910278 813.163025,1592.995728 798.968689,1598.417969 
	C782.770691,1604.605591 766.369995,1610.272217 749.985413,1615.958008 
	C741.025146,1619.067505 731.891418,1621.874512 723.123962,1625.315796 
	C714.283997,1628.785645 705.335571,1632.143433 696.409180,1635.237915 
	C683.490112,1639.716675 671.013855,1645.307129 658.018921,1649.557739 
	C641.940125,1654.817017 625.971436,1660.418579 610.008301,1666.023682 
	C595.135986,1671.245972 580.342896,1676.693481 565.497559,1681.993042 
	C547.674622,1688.355713 529.863708,1694.754028 511.990387,1700.972290 
	C497.704681,1705.942505 483.200775,1710.312866 469.043579,1715.616333 
	C458.420563,1719.596069 447.716827,1723.303467 437.009369,1727.026978 
	C427.797546,1730.230347 418.689819,1733.732666 409.486664,1736.962158 
	C406.491669,1738.013184 403.587860,1739.145020 401.000000,1741.000000 
"/>
<path fill="none" opacity="1.000000" stroke="#000000" stroke-linecap="round" stroke-linejoin="round" stroke-width="9.000000"
	d="
M2185.500000,485.000000 
	C2175.776367,485.083160 2166.505371,488.382996 2156.977539,489.252716 
	C2148.531006,490.023682 2140.430420,492.721680 2131.998047,492.909332 
	C2127.281006,493.014313 2123.050049,494.871979 2118.509033,495.559875 
	C2095.156250,499.097321 2071.754395,502.405487 2048.534180,506.685181 
	C2037.357178,508.745209 2026.091919,510.499756 2014.921265,512.576355 
	C2007.270630,513.998657 1999.239868,514.771057 1991.551636,516.265442 
	C1983.553711,517.820007 1975.426270,518.534241 1967.424316,520.117615 
	C1959.940918,521.598389 1952.279419,523.103821 1944.514893,523.696045 
	C1938.178711,524.179260 1931.804932,525.527710 1925.541138,526.716553 
	C1912.900635,529.115601 1900.172363,530.866211 1887.501831,533.010681 
	C1873.993774,535.296753 1860.484985,537.585144 1847.011963,540.065308 
	C1844.143799,540.593262 1841.330811,540.291321 1838.500000,540.500000 
"/>
<path fill="none" opacity="1.000000" stroke="#000000" stroke-linecap="round" stroke-linejoin="round" stroke-width="8.000000"
	d="
M786.500000,705.500000 
	C780.759521,708.375427 778.337463,714.102417 775.028076,719.018860 
	C767.439514,730.292664 759.974731,741.650085 752.505432,753.003601 
	C737.820557,775.324951 723.188171,797.680847 708.493530,819.995728 
	C695.858337,839.183105 683.184998,858.345459 670.495361,877.496948 
	C653.873047,902.583496 637.027222,927.521606 620.956848,952.972778 
	C615.900330,960.980835 610.327881,968.662903 605.015259,976.510315 
	C604.730774,976.930603 604.816223,977.777954 604.478394,977.959839 
	C591.608704,984.886719 587.852966,999.016602 579.460754,1009.468445 
	C574.146545,1016.086914 570.709839,1023.952393 564.667053,1030.162598 
	C561.455444,1033.463257 561.152405,1039.093872 561.748230,1043.466187 
	C562.727539,1050.653076 564.220642,1057.847656 565.738220,1064.949097 
	C567.377014,1072.617920 568.989197,1080.297485 570.522644,1087.995483 
	C573.613220,1103.510620 576.804321,1119.005981 580.009094,1134.498169 
	C582.631226,1147.173950 585.365784,1159.826660 587.991455,1172.501709 
	C591.028015,1187.160767 593.852173,1201.865601 597.044250,1216.490356 
	C599.881653,1229.489502 602.546570,1242.549194 605.122559,1255.574707 
	C607.016846,1265.153198 609.049011,1274.811157 610.831787,1284.438599 
	C612.595947,1293.965332 614.812988,1303.518433 616.801758,1313.041382 
	C618.876099,1322.974609 621.324158,1332.857788 622.707581,1342.971558 
	C623.343628,1347.621826 624.581909,1352.318726 625.615967,1356.974243 
	C626.466309,1360.803101 627.972168,1364.529053 627.450317,1368.493408 
	C626.787231,1373.531250 629.469360,1377.409668 631.535400,1381.482056 
	C634.263428,1386.859619 633.695496,1392.925293 635.315063,1398.553223 
	C635.927551,1400.681641 635.869812,1403.299072 636.589844,1405.470215 
	C638.703064,1411.842163 639.656799,1418.383911 640.580994,1424.988647 
	C641.239807,1429.697388 642.758057,1434.289551 643.794434,1438.934326 
	C645.504456,1446.597656 646.426086,1454.445435 648.577271,1461.977905 
	C652.249939,1474.838013 654.563110,1488.018066 657.222473,1501.056641 
	C661.499939,1522.028809 665.913025,1542.986450 670.168091,1563.965942 
	C673.620239,1580.986938 677.334534,1597.963745 680.859009,1614.977417 
	C682.432617,1622.573364 683.697571,1630.338623 687.000000,1637.500000 
"/>
<path fill="none" opacity="1.000000" stroke="#000000" stroke-linecap="round" stroke-linejoin="round" stroke-width="9.000000"
	d="
M397.500000,884.500000 
	C395.077301,891.016296 389.640015,895.299988 385.430573,900.443176 
	C363.914185,926.732849 342.235199,952.890503 320.474304,978.978577 
	C307.447754,994.595459 294.084930,1009.931519 281.023254,1025.519531 
	C268.249847,1040.763428 255.708832,1056.201660 242.991150,1071.492676 
	C217.187454,1102.517334 191.328186,1133.495728 165.502213,1164.501831 
	C153.155991,1179.324463 140.809265,1194.146729 128.521606,1209.017822 
	C126.218910,1211.804688 123.757072,1214.672363 123.599739,1218.504150 
	C123.551384,1219.682007 122.926086,1220.355713 122.444160,1220.955078 
	C114.058853,1231.381348 104.839516,1241.108154 96.927139,1251.946777 
	C93.239143,1256.998779 90.501862,1257.286987 85.539391,1253.449097 
	C72.589096,1243.433594 59.836990,1233.161987 46.998920,1223.001343 
	C36.671177,1214.827637 26.492002,1206.453003 15.923037,1198.603638 
	C11.610371,1195.400513 9.572796,1191.391968 8.500000,1186.500000 
"/>
<path fill="none" opacity="1.000000" stroke="#000000" stroke-linecap="round" stroke-linejoin="round" stroke-width="15.000000"
	d="
M1015.500000,2.000000 
	C1025.377930,4.674911 1032.168823,11.154627 1038.669434,18.857027 
	C1048.692749,30.733303 1059.904175,41.601040 1070.484741,53.014122 
	C1090.371094,74.465065 1110.332275,95.850929 1129.906494,117.584206 
	C1136.383423,124.775597 1142.904053,131.920761 1149.506592,138.993805 
	C1152.458740,142.156342 1154.984985,145.587479 1155.416138,150.008179 
	C1155.552368,151.406143 1156.146484,152.174133 1156.999268,153.000702 
	C1174.318970,169.788681 1189.250488,188.741226 1205.470703,206.526672 
	C1218.117065,220.393295 1229.888672,235.115585 1243.181885,248.316864 
	C1255.094360,260.147034 1265.797852,273.018982 1277.419189,285.077942 
	C1289.449219,297.561035 1300.766113,310.728668 1312.515381,323.485840 
	C1331.291260,343.872192 1350.242554,364.097046 1368.976929,384.521179 
	C1385.088257,402.085724 1400.953613,419.875702 1417.016602,437.484924 
	C1427.428345,448.898743 1438.009033,460.158295 1448.497925,471.501892 
	C1464.672485,488.994568 1480.873047,506.463593 1496.984863,524.013916 
	C1506.401245,534.271057 1515.615723,544.713318 1525.024170,554.977844 
	C1529.018311,559.335449 1529.767822,564.373474 1526.481445,569.488098 
	C1514.361572,588.351440 1502.102051,607.125305 1490.020264,626.013062 
	C1480.253296,641.282166 1470.663818,656.664795 1461.000610,672.000488 
	C1447.664551,693.165344 1434.502930,714.443726 1420.862183,735.410278 
	C1418.008789,739.796082 1417.499756,744.252991 1417.000000,749.000000 
"/>
<path fill="none" opacity="1.000000" stroke="#000000" stroke-linecap="round" stroke-linejoin="round" stroke-width="11.000000"
	d="
M1652.000000,1596.499878 
	C1654.333374,1596.333252 1656.694336,1596.338501 1658.994751,1595.967529 
	C1665.775757,1594.873901 1671.610596,1598.604492 1677.957886,1599.736206 
	C1688.068848,1601.538818 1697.840332,1605.102539 1707.978760,1607.107178 
	C1710.989380,1607.702271 1714.002441,1608.691772 1716.976318,1609.579346 
	C1729.227661,1613.235962 1741.712891,1616.045532 1754.071655,1619.220947 
	C1766.657593,1622.454590 1779.308838,1625.600464 1791.986694,1628.556885 
	C1802.218872,1630.942871 1812.316406,1633.900269 1822.505249,1636.479126 
	C1830.812622,1638.582031 1839.297119,1640.083740 1847.455811,1642.641113 
	C1853.265137,1644.462036 1859.259033,1645.753052 1865.085693,1647.140137 
	C1872.787109,1648.973755 1880.294556,1652.443237 1888.500122,1652.002563 
	C1888.832520,1651.984619 1889.280762,1651.857788 1889.483521,1652.020508 
	C1898.257935,1659.063965 1909.422241,1659.002075 1919.549683,1661.821777 
	C1929.261230,1664.525513 1939.052002,1667.091064 1948.973877,1669.127075 
	C1958.262451,1671.033081 1967.254639,1674.359009 1976.523560,1676.392578 
	C1984.750977,1678.197632 1992.863403,1680.393799 2000.983521,1682.561646 
	C2006.647827,1684.073730 2012.471924,1684.842529 2018.045776,1686.874268 
	C2021.721558,1688.214233 2025.733398,1688.888794 2029.552124,1689.775269 
	C2047.123047,1693.854248 2064.536621,1698.515991 2082.007324,1702.971436 
	C2095.637695,1706.447266 2109.344971,1709.619385 2122.995850,1713.016602 
	C2132.017822,1715.261963 2140.984619,1717.727783 2150.004395,1719.982788 
	C2158.984619,1722.228149 2167.972900,1724.457764 2177.015869,1726.427124 
	C2179.868164,1727.048340 2182.163818,1729.970459 2185.625244,1728.027954 
	C2185.484131,1730.836548 2185.366943,1733.168213 2185.249756,1735.500000 
"/>
<path fill="none" opacity="1.000000" stroke="#000000" stroke-linecap="round" stroke-linejoin="round" stroke-width="10.000000"
	d="
M90.000000,1788.000000 
	C94.630981,1785.761963 95.578758,1780.795166 97.928894,1776.956421 
	C112.569801,1753.042725 127.055794,1729.033447 141.481155,1704.988647 
	C151.745102,1687.880493 161.748077,1670.615356 172.024246,1653.514526 
	C182.079620,1636.781006 192.598236,1620.320801 202.418411,1603.452515 
	C210.664276,1589.288330 219.399918,1575.423096 227.730621,1561.340698 
	C237.652954,1544.567749 248.057968,1528.062866 257.539001,1511.021729 
	C258.924286,1508.531860 260.823242,1506.326050 262.502350,1504.001709 
	C264.826080,1500.785278 267.444977,1501.677368 269.445312,1504.046143 
	C274.462311,1509.987549 277.256256,1517.282837 280.990173,1524.005493 
	C293.016449,1545.657471 305.080627,1567.289185 316.978851,1589.011597 
	C330.736450,1614.128418 344.389221,1639.303223 357.983826,1664.508667 
	C370.726257,1688.134521 383.217224,1711.896606 396.061676,1735.466431 
	C400.679718,1743.940796 404.164581,1752.917358 408.529633,1761.484863 
	C412.557007,1769.389282 416.775085,1777.198486 421.036713,1784.979858 
	C422.262146,1787.217407 424.905762,1787.650757 427.000000,1788.750000 
"/>
<path fill="none" opacity="1.000000" stroke="#000000" stroke-linecap="round" stroke-linejoin="round" stroke-width="8.000000"
	d="
M982.000000,1295.000000 
	C982.575806,1299.139648 981.768860,1302.674805 979.666626,1306.589478 
	C971.100098,1322.541382 963.190247,1338.845337 954.993164,1354.996582 
	C947.133362,1370.483154 939.202087,1385.944092 931.245056,1401.368530 
	C921.608521,1420.048706 912.014954,1438.754639 902.354553,1457.424805 
	C896.465088,1468.807129 890.216980,1480.018677 884.515747,1491.507812 
	C878.883301,1502.858521 873.075195,1514.135498 867.263916,1525.377930 
	C861.108032,1537.287109 855.259338,1549.391479 848.547607,1561.027466 
	C846.579163,1564.440186 845.218994,1568.170044 843.097595,1571.561035 
	C841.339905,1574.370605 841.412964,1577.767334 842.500000,1581.000000 
"/>
<path fill="none" opacity="1.000000" stroke="#000000" stroke-linecap="round" stroke-linejoin="round" stroke-width="8.000000"
	d="
M1821.000000,1249.500000 
	C1815.786987,1254.023193 1809.680908,1251.347778 1803.999023,1251.407837 
	C1792.954224,1251.524658 1782.091919,1248.830811 1770.999390,1248.910156 
	C1766.169800,1248.944702 1761.168457,1248.611938 1756.536743,1247.363892 
	C1748.568481,1245.216797 1740.401855,1247.024536 1732.510010,1245.449829 
	C1718.464478,1242.647217 1704.136963,1242.386230 1689.973877,1241.360107 
	C1676.469604,1240.381714 1663.052979,1238.493896 1649.517944,1237.695190 
	C1637.194214,1236.968018 1624.820557,1235.783203 1612.505127,1234.452759 
	C1604.349365,1233.571777 1596.175537,1233.068359 1588.006226,1232.421387 
	C1577.314209,1231.574829 1566.674438,1230.086182 1555.995483,1229.046387 
	C1552.528198,1228.708862 1549.064819,1229.094116 1546.500000,1232.000000 
"/>
<path fill="none" opacity="1.000000" stroke="#000000" stroke-linecap="round" stroke-linejoin="round" stroke-width="9.000000"
	d="
M124.000000,1220.000000 
	C137.333328,1224.166626 150.640915,1228.418213 164.006805,1232.477539 
	C179.143921,1237.074829 194.467743,1241.097778 209.463257,1246.109863 
	C225.415421,1251.441772 241.706711,1255.655396 257.542633,1261.382080 
	C267.144836,1264.854492 277.203888,1267.044678 286.990753,1270.030396 
	C299.695343,1273.906006 312.328522,1278.015259 325.001495,1281.995239 
	C335.160706,1285.185669 345.324738,1288.361328 355.503204,1291.489624 
	C361.652466,1293.379639 368.817993,1293.810669 373.727295,1297.375488 
	C378.793671,1301.054321 383.958710,1300.367676 389.028320,1301.354492 
	C397.812683,1303.064819 405.983734,1306.579956 414.527161,1308.900024 
	C421.559875,1310.809692 428.313049,1313.553467 435.469360,1315.138428 
	C441.452179,1316.463379 447.135712,1319.096802 453.008911,1320.972046 
	C458.634308,1322.768066 464.418365,1324.092285 469.980530,1326.055176 
	C478.890564,1329.199097 488.021545,1331.615234 496.972382,1334.583252 
	C507.434357,1338.052246 518.028076,1341.104858 528.461914,1344.613281 
	C541.756104,1349.083252 555.147888,1353.223999 568.497375,1357.508301 
	C585.008423,1362.807251 601.479797,1368.231079 618.020386,1373.435425 
	C620.695862,1374.277100 623.585144,1375.218750 626.500000,1374.000000 
"/>
<path fill="none" opacity="1.000000" stroke="#000000" stroke-linecap="round" stroke-linejoin="round" stroke-width="9.000000"
	d="
M2185.500000,513.500000 
	C2185.500000,514.000000 2185.503906,514.500061 2185.499512,515.000000 
	C2185.454834,520.100342 2185.534180,524.370789 2180.783936,528.804138 
	C2173.063965,536.009094 2167.138672,545.144409 2160.506348,553.504944 
	C2149.150146,567.820251 2137.855225,582.184143 2126.494385,596.495483 
	C2112.851562,613.681335 2099.170898,630.836670 2085.498779,647.998962 
	C2075.005371,661.170959 2064.300781,674.181702 2054.102783,687.578247 
	C2050.279297,692.600952 2045.040527,696.671082 2042.955811,702.985413 
	C2042.804077,703.445251 2042.332764,703.859375 2041.523682,704.084961 
	C2036.097778,705.598267 2032.874268,709.821960 2029.457397,713.964844 
	C2013.721069,733.044861 1997.819092,751.988220 1982.003906,771.003296 
	C1966.050049,790.184692 1949.778442,809.094543 1933.595459,828.081421 
	C1919.101440,845.086792 1904.651978,862.127502 1890.053223,879.045959 
	C1871.665527,900.355164 1853.609131,921.952026 1835.568481,943.557190 
	C1833.157227,946.444946 1830.431885,948.347961 1827.000000,949.500000 
"/>
<path fill="none" opacity="1.000000" stroke="#000000" stroke-linecap="round" stroke-linejoin="round" stroke-width="11.000000"
	d="
M1247.500000,251.000000 
	C1250.337769,248.251541 1251.270020,244.841248 1251.002808,240.999802 
	C1250.629272,235.629196 1249.842896,230.298691 1249.238037,224.972961 
	C1248.107788,215.022751 1247.501953,204.988037 1246.545654,194.995636 
	C1245.523071,184.310425 1244.603149,173.619385 1243.011353,162.998291 
	C1242.763428,161.343811 1242.501953,159.664276 1242.526245,158.000381 
	C1242.705322,145.732117 1240.110840,133.710999 1239.345459,121.509697 
	C1238.297241,104.804230 1236.166626,88.166664 1234.500122,71.499992 
	C1232.500000,51.500004 1230.260864,31.518822 1228.684204,11.485504 
	C1228.332031,7.010422 1226.403198,4.953424 1223.000000,3.250000 
"/>
<path fill="none" opacity="1.000000" stroke="#000000" stroke-linecap="round" stroke-linejoin="round" stroke-width="11.000000"
	d="
M55.500000,307.500000 
	C60.447269,304.732910 64.950897,304.226227 71.097084,305.548828 
	C83.125305,308.137115 94.895325,311.771057 106.922218,314.361176 
	C115.633583,316.237213 124.472664,318.453522 133.069046,321.290802 
	C136.682693,322.483490 140.686447,323.110870 144.487671,324.049927 
	C154.690460,326.570404 164.728836,329.886627 175.031647,331.832428 
	C183.966034,333.519745 192.598221,336.289215 201.441666,338.261536 
	C209.298019,340.013763 217.070297,342.688080 225.031586,343.766907 
	C230.322769,344.483948 235.005630,344.980103 239.738724,348.142731 
	C241.932236,349.608459 246.193420,349.573273 249.521042,350.417023 
	C262.803375,353.784882 276.191376,356.733368 289.494019,360.024231 
	C307.976776,364.596649 326.423706,369.310028 344.930389,373.787750 
	C354.121460,376.011536 363.400909,378.245178 372.564117,380.767029 
	C380.589874,382.975861 388.741486,385.036316 396.937836,386.790436 
	C402.616302,388.005676 408.381470,389.733307 414.056915,391.292908 
	C424.999908,394.300018 435.760376,398.019073 446.985992,400.076416 
	C458.076813,402.109039 469.005768,405.051544 480.042542,407.290192 
	C490.191681,409.348755 500.339935,411.619537 510.425079,413.840302 
	C521.796692,416.344330 533.222351,418.925018 544.537903,421.853668 
	C556.619324,424.980560 568.845642,427.723969 581.049255,430.263245 
	C600.462708,434.302704 619.772095,438.698853 638.995667,443.517181 
	C642.820618,444.475891 646.418091,443.765808 650.000000,442.500000 
"/>
<path fill="none" opacity="1.000000" stroke="#000000" stroke-linecap="round" stroke-linejoin="round" stroke-width="11.000000"
	d="
M380.000000,1302.000000 
	C379.178406,1307.436279 376.093231,1311.923462 373.414948,1316.449707 
	C365.147919,1330.420898 356.319550,1344.059692 348.039886,1358.023682 
	C333.563477,1382.438843 319.422058,1407.052490 304.971375,1431.483032 
	C293.781311,1450.401123 282.334229,1469.167114 270.999359,1487.999634 
	C268.462860,1492.213989 265.520355,1496.261353 265.500000,1501.500000 
"/>
<path fill="none" opacity="1.000000" stroke="#000000" stroke-linecap="round" stroke-linejoin="round" stroke-width="13.000000"
	d="
M2099.500000,1281.000000 
	C2098.304443,1288.460327 2093.312256,1294.120361 2089.855713,1300.420898 
	C2077.219971,1323.453979 2063.996582,1346.164673 2051.001221,1369.000610 
	C2041.328613,1385.997314 2031.630981,1402.979858 2022.010254,1420.005737 
	C2012.796143,1436.312378 2003.670166,1452.668701 1994.496826,1468.998169 
	C1992.726196,1472.149902 1993.097778,1475.606323 1993.000000,1479.000000 
"/>
<path fill="none" opacity="1.000000" stroke="#000000" stroke-linecap="round" stroke-linejoin="round" stroke-width="14.000000"
	d="
M2185.500000,1462.500000 
	C2175.666748,1463.500000 2165.835938,1464.526733 2155.999268,1465.493164 
	C2143.835449,1466.688232 2131.593018,1467.336182 2119.518555,1469.124512 
	C2104.057129,1471.414185 2088.443359,1472.110107 2072.945801,1474.071655 
	C2063.940430,1475.211670 2054.722168,1476.853638 2045.502197,1476.448975 
	C2038.323975,1476.133789 2031.461914,1477.835449 2024.496704,1478.980225 
	C2022.684937,1479.278198 2020.836548,1479.394653 2018.999390,1479.488037 
	C2014.325195,1479.725586 2009.662109,1479.226196 2004.966797,1480.362793 
	C2002.141724,1481.046875 1998.981934,1481.711182 1995.977417,1480.040527 
	C1993.317383,1478.561035 1991.320068,1480.146729 1989.494141,1481.994141 
	C1986.318848,1485.207031 1984.262329,1489.193359 1982.036255,1493.021118 
	C1969.461182,1514.644043 1957.050781,1536.362793 1944.475952,1557.985962 
	C1939.289307,1566.904663 1933.704712,1575.592041 1928.525391,1584.514648 
	C1915.781006,1606.469604 1903.165161,1628.499146 1890.511475,1650.506592 
	C1890.254028,1650.954346 1890.166748,1651.500000 1890.000000,1652.000000 
"/>
<path fill="none" opacity="1.000000" stroke="#000000" stroke-linecap="round" stroke-linejoin="round" stroke-width="11.000000"
	d="
M925.000000,1555.500000 
	C927.210999,1561.922852 924.789490,1568.153809 922.232117,1573.368652 
	C916.939148,1584.161743 913.470398,1595.619995 908.665039,1606.572388 
	C903.474670,1618.402344 899.196533,1630.637695 894.233093,1642.596802 
	C890.570435,1651.421753 887.516785,1660.570190 883.980896,1669.492432 
	C878.553528,1683.187866 873.039917,1696.849609 867.481567,1710.492432 
	C865.051636,1716.456909 862.011169,1722.180786 860.504150,1728.500977 
	C860.307129,1729.327148 860.459717,1730.476685 859.955688,1730.953125 
	C852.995056,1737.533081 851.415833,1746.887817 847.593018,1755.043579 
	C843.222229,1764.368408 838.345032,1773.493286 835.331116,1783.448853 
	C834.828125,1785.110474 833.203735,1787.203735 831.000000,1788.000000 
"/>
<path fill="none" opacity="1.000000" stroke="#000000" stroke-linecap="round" stroke-linejoin="round" stroke-width="12.000000"
	d="
M1626.500000,1517.000000 
	C1621.193726,1516.891846 1617.408447,1520.135376 1613.511475,1523.015503 
	C1593.486450,1537.815063 1573.497192,1552.662964 1553.500977,1567.501343 
	C1536.663330,1579.995605 1519.837646,1592.505981 1502.998535,1604.998047 
	C1489.505615,1615.007568 1475.979980,1624.973145 1462.511230,1635.015015 
	C1457.926636,1638.433228 1455.872070,1638.291504 1451.493042,1634.007202 
	C1446.831299,1629.446167 1443.890991,1623.606445 1440.141235,1618.398315 
	C1426.285889,1599.154175 1413.279419,1579.298218 1399.400269,1560.072021 
	C1390.384277,1547.582520 1381.514282,1534.968262 1372.723145,1522.344604 
	C1360.944214,1505.430786 1348.848389,1488.720947 1337.455444,1471.529541 
	C1331.710571,1462.860474 1325.466919,1454.523071 1319.510010,1445.993042 
	C1314.295654,1438.526367 1309.183105,1430.988647 1303.991943,1423.505615 
	C1301.893921,1420.481445 1302.721313,1416.497192 1300.520508,1413.485107 
	C1297.274658,1409.042969 1294.176636,1404.492920 1290.998169,1400.001221 
	C1277.669189,1381.164917 1264.357910,1362.316040 1250.991333,1343.506104 
	C1242.203857,1331.140137 1233.223145,1318.910522 1224.525391,1306.482178 
	C1210.872070,1286.972778 1196.608276,1267.898438 1183.426392,1248.048828 
	C1175.831909,1236.612915 1167.454834,1225.698486 1159.526489,1214.481323 
	C1157.024292,1210.941162 1155.255493,1207.057373 1156.000000,1202.500000 
"/>
<path fill="none" opacity="1.000000" stroke="#000000" stroke-linecap="round" stroke-linejoin="round" stroke-width="21.000000"
	d="
M11.250000,289.000000 
	C13.630691,296.156189 20.571457,296.373230 26.056978,297.777405 
	C33.680500,299.728821 41.227245,302.045349 48.961529,303.681824 
	C54.943951,304.947601 56.462517,309.788177 53.963356,316.987274 
	C49.088257,331.030640 43.729576,344.910614 39.065002,359.021484 
	C32.489750,378.912354 24.320456,398.220673 17.707361,418.069092 
	C14.958442,426.319641 14.510941,435.335266 12.996909,443.999451 
	C11.511134,452.501953 9.964632,460.994019 8.526431,469.504456 
	C8.193380,471.475281 8.900935,473.561188 8.000000,475.500000 
"/>
<path fill="none" opacity="1.000000" stroke="#000000" stroke-linecap="round" stroke-linejoin="round" stroke-width="9.000000"
	d="
M169.000000,181.000000 
	C164.850708,187.858215 169.749557,193.360947 172.105789,198.955444 
	C181.347183,220.897690 190.961823,242.683395 200.514832,264.493500 
	C205.932709,276.862823 211.523346,289.156311 216.993027,301.503082 
	C221.859558,312.488373 226.799561,323.444916 231.399673,334.541595 
	C232.452179,337.080536 233.242706,340.083771 232.000000,343.000000 
"/>
<path fill="none" opacity="1.000000" stroke="#000000" stroke-linecap="round" stroke-linejoin="round" stroke-width="11.000000"
	d="
M2043.000000,704.500000 
	C2048.291504,712.208557 2055.863037,717.656494 2062.567383,723.927856 
	C2072.135742,732.877869 2082.207275,741.287781 2091.990723,750.010376 
	C2108.024658,764.305603 2124.013916,778.651184 2139.995605,793.004883 
	C2153.516357,805.148315 2166.816162,817.548157 2180.619629,829.360291 
	C2184.424561,832.616455 2186.346436,835.690979 2185.500000,840.500000 
"/>
<path fill="none" opacity="1.000000" stroke="#000000" stroke-linecap="round" stroke-linejoin="round" stroke-width="8.000000"
	d="
M1457.000000,1638.000000 
	C1456.710449,1643.796143 1454.043701,1647.497681 1449.176147,1651.229736 
	C1435.867920,1661.433105 1422.304443,1671.295654 1408.999756,1681.499756 
	C1399.001221,1689.168213 1389.007324,1696.842896 1378.997803,1704.497192 
	C1369.174072,1712.009644 1359.394409,1719.582153 1349.468506,1726.957520 
	C1345.743408,1729.725464 1341.913574,1732.338135 1338.498291,1735.498169 
	C1336.683838,1737.177246 1335.968994,1739.076416 1336.989136,1741.504639 
	C1340.914673,1750.847778 1342.363403,1760.918335 1345.439941,1770.519287 
	C1346.953247,1775.241577 1347.794922,1780.176392 1349.018677,1784.995239 
	C1349.522827,1786.979736 1351.975586,1786.588135 1353.000000,1788.000000 
"/>
<path fill="none" opacity="1.000000" stroke="#000000" stroke-linecap="round" stroke-linejoin="round" stroke-width="11.000000"
	d="
M92.000000,1256.500000 
	C92.526543,1260.148682 91.003784,1263.322754 88.937248,1265.950684 
	C79.412788,1278.062500 69.660492,1289.994995 60.001522,1302.001221 
	C46.328915,1318.996460 32.624435,1335.966309 19.024578,1353.019653 
	C14.706436,1358.434326 10.734804,1364.078857 8.894180,1370.971802 
	C8.564190,1372.207397 8.766183,1373.347534 8.500000,1374.500000 
"/>
<path fill="none" opacity="1.000000" stroke="#000000" stroke-linecap="round" stroke-linejoin="round" stroke-width="9.000000"
	d="
M1080.000000,1113.000000 
	C1084.403198,1114.073486 1087.447632,1116.813599 1090.041870,1120.470337 
	C1099.435791,1133.712158 1109.089600,1146.769897 1118.470947,1160.020630 
	C1125.658203,1170.172241 1133.386963,1179.927734 1140.090942,1190.442017 
	C1143.706177,1196.112183 1149.647217,1199.386230 1155.500000,1202.500000 
"/>
<path fill="none" opacity="1.000000" stroke="#000000" stroke-linecap="round" stroke-linejoin="round" stroke-width="9.000000"
	d="
M860.500000,1731.000000 
	C879.833374,1744.333252 899.073303,1757.805420 918.556580,1770.915894 
	C924.429810,1774.867920 930.226929,1778.914673 935.986450,1783.019043 
	C941.273926,1786.786743 947.084412,1789.122314 953.500000,1790.000000 
"/>
<path fill="none" opacity="1.000000" stroke="#000000" stroke-linecap="round" stroke-linejoin="round" stroke-width="3.000000"
	d="
M1322.500000,1.500000 
	C1294.004761,2.485011 1265.499756,1.800961 1236.999878,1.990182 
	C1234.610718,2.006046 1232.258179,2.005615 1230.500000,4.000000 
"/>
<path fill="none" opacity="1.000000" stroke="#000000" stroke-linecap="round" stroke-linejoin="round" stroke-width="6.000000"
	d="
M1336.000000,1738.500000 
	C1332.406738,1738.149170 1329.305908,1739.390381 1326.502808,1741.503662 
	C1308.164062,1755.329834 1289.692993,1768.987183 1271.601196,1783.129517 
	C1267.217041,1786.556396 1262.804932,1789.191528 1257.500000,1790.500000 
"/>
</svg>