<svg version="1.1" id="Layer_1" xmlns="http://www.w3.org/2000/svg" xmlns:xlink="http://www.w3.org/1999/xlink" x="0px" y="0px"
	 width="100%" viewBox="0 0 55 55" enable-background="new 0 0 55 55" xml:space="preserve">
<path fill="none" opacity="1.000000" stroke="#000000" stroke-linecap="round" stroke-linejoin="round" stroke-width="2.000000"
	d="
M18.500000,17.500000 
	C19.171198,26.333000 19.842398,35.166000 20.532669,44.250000 
	C25.655914,44.250000 30.827957,44.250000 36.551075,44.250000 
	C37.186356,35.530422 37.843178,26.515211 38.500000,17.500000 
"/>
<path fill="none" opacity="1.000000" stroke="#000000" stroke-linecap="round" stroke-linejoin="round" stroke-width="2.000000"
	d="
M23.500000,20.500000 
	C23.833332,27.166666 24.166666,33.833332 24.500000,40.500000 
"/>
<path fill="none" opacity="1.000000" stroke="#000000" stroke-linecap="round" stroke-linejoin="round" stroke-width="2.000000"
	d="
M28.500000,20.500000 
	C28.500000,27.166666 28.500000,33.833332 28.500000,40.500000 
"/>
<path fill="none" opacity="1.000000" stroke="#000000" stroke-linecap="round" stroke-linejoin="round" stroke-width="2.000000"
	d="
M33.499996,20.500000 
	C33.166664,27.166666 32.833332,33.833332 32.499996,40.500000 
"/>
<path fill="none" opacity="1.000000" stroke="#000000" stroke-linecap="round" stroke-linejoin="round" stroke-width="2.000000"
	d="
M16.500000,16.500000 
	C24.500000,16.500000 32.500000,16.500000 40.500000,16.500000 
"/>
<path fill="none" opacity="1.000000" stroke="#000000" stroke-linecap="round" stroke-linejoin="round" stroke-width="3.000000"
	d="
M26.000000,3.500000 
	C14.153795,5.772230 6.344573,12.072274 3.925065,24.485394 
	C1.998752,34.368214 7.004082,49.184994 23.023741,52.897556 
	C36.837067,56.098801 49.179543,47.179649 52.607597,35.030361 
	C56.666721,20.644499 46.241154,2.648725 26.500000,3.500000 
"/>
</svg>